<svg width="32" height="32" shape-rendering="crispEdges" version="1.1" viewBox="0 0 8.467 8.467" xmlns="http://www.w3.org/2000/svg" xmlns:xlink="http://www.w3.org/1999/xlink">
  <defs>
    <linearGradient id="linearGradient852" x1="4.939" x2="1.815" y1="294.1" y2="290.9" gradientTransform="matrix(.9412 0 0 .8235 .5992 49.9)" gradientUnits="userSpaceOnUse">
      <stop stop-color="#9c9c9c" offset="0"/>
      <stop stop-color="#cacccb" offset="1"/>
    </linearGradient>
    <linearGradient id="linearGradient911-2" x1="4.895" x2="6.879" y1="291.2" y2="292.4" gradientTransform="matrix(-.8947 0 0 -.8889 9.817 553.3)" gradientUnits="userSpaceOnUse">
      <stop stop-color="#261fb1" offset="0"/>
      <stop stop-color="#5c55e3" offset="1"/>
    </linearGradient>
    <linearGradient id="linearGradient911" x1="6.879" x2="4.895" y1="293" y2="291.2" gradientTransform="matrix(.9444 0 0 .9445 1.058 15.76)" gradientUnits="userSpaceOnUse">
      <stop stop-color="#f22f30" offset="0"/>
      <stop stop-color="#fa6c6d" offset="1"/>
    </linearGradient>
    <linearGradient id="linearGradient876" x1="6.963" x2="4.895" y1="295.4" y2="293.3" gradientTransform="matrix(.8947 0 0 .8824 1.295 33.98)" gradientUnits="userSpaceOnUse">
      <stop stop-color="#eddd52" offset="0"/>
      <stop stop-color="#fbef8a" offset="1"/>
    </linearGradient>
    <linearGradient id="linearGradient870-5" x1="7.938" x2="3.175" y1="294.5" y2="293.6" gradientTransform="matrix(1.059 0 0 1 -.4903 .2644)" gradientUnits="userSpaceOnUse">
      <stop stop-color="#e8ae11" offset="0"/>
      <stop stop-color="#f7d06b" offset="1"/>
    </linearGradient>
    <linearGradient id="linearGradient838-6" x1="6.879" x2="1.191" y1="295.7" y2="290.8" gradientTransform="translate(-.6615 .2644)" gradientUnits="userSpaceOnUse">
      <stop stop-color="#ecb523" offset="0"/>
      <stop stop-color="#fde194" offset="1"/>
    </linearGradient>
  </defs>
  <g transform="translate(0 -288.5)">
    <path d="m4.136 293.1v0.4704" fill="none" stroke="#3831c7" stroke-width=".2646px"/>
    <path d="m0.3969 295.7c0-0.5292-2e-7 -4.63-2e-7 -4.63-1e-7 -0.2061 0.2797-0.5261 0.5292-0.5292 0.2817-3e-3 1.058 0 1.191 0 0.05575 0 0.3379-0.0199 0.5082 0.1667 0.2607 0.2858 0.8148 0.8916 0.8148 0.8916s2.381-2e-5 2.778-1e-5c0.2646 0 0.5292 0.2797 0.5292 0.5292v3.44l-0.5292 0.5292s-5.031 8e-3 -5.432 0.0124c-0.1972 2e-3 -0.3886-0.212-0.3886-0.4093z" fill="url(#linearGradient838-6)" stroke="#b78500" stroke-width=".2646px"/>
    <path d="m7.687 292.8h-2.131l3e-7 1.984h1.775l0.3551-0.2335z" fill="url(#linearGradient876)"/>
    <path d="m5.556 294.8h1.661c0.293 0 0.5934-0.304 0.5881-0.5875-0.01084-0.5874 3.3e-6 -1.528 3.3e-6 -1.528" fill="none" stroke="#a59725" stroke-width=".2646px"/>
    <path d="m5.556 290.5v2.249h2.249l2e-7 -1.894-0.3551-0.3551z" fill="url(#linearGradient911)"/>
    <path d="m7.805 292.8-4e-7 -1.657c0-0.288-0.2928-0.5918-0.5918-0.5918-0.5787 0-1.657 3e-5 -1.657 3e-5" fill="none" stroke="#be1e1e" stroke-width=".2646px"/>
    <path d="m5.556 294.8v-2.117h-2.249v1.529l0.4735 0.4704z" fill="url(#linearGradient911-2)"/>
    <g>
      <path d="m3.307 292.6s-3e-7 0.9407 0 1.529c1e-7 0.2881 0.3128 0.588 0.5918 0.588h1.657" fill="none" stroke="#221d89" stroke-width=".2646px"/>
      <rect x="1.72" y="288.9" width="4.233" height="3.704" rx="0" ry=".6537" fill="url(#linearGradient852)" stroke="#5d5d5d" stroke-width=".2646"/>
      <path d="m0.6615 296.3v-0.3969s1.378-1.382 1.984-1.984c0.1128-0.1121 0.2646-0.2646 0.5333-0.2625 0.00532 4e-5 1.198-2e-3 1.716-2e-3 0.1891 0 0.2983 0.0337 0.3969 0.1323 0.2094 0.2094 0.6615 0.6615 0.6615 0.6615h2.381s9e-7 0.2644 9e-7 0.3969c-0.4701 0.4701-1.455 1.455-1.455 1.455z" fill="url(#linearGradient870-5)" stroke="#b78500" stroke-width=".2646px"/>
    </g>
  </g>
</svg>
