<svg width="32" height="32" shape-rendering="crispEdges" version="1.1" viewBox="0 0 8.467 8.467" xmlns="http://www.w3.org/2000/svg" xmlns:xlink="http://www.w3.org/1999/xlink">
  <defs>
    <linearGradient id="linearGradient870" x1="7.938" x2="3.175" y1="294.5" y2="293.6" gradientTransform="matrix(1.059 0 0 1 -.4903 0)" gradientUnits="userSpaceOnUse">
      <stop stop-color="#3291ea" offset="0"/>
      <stop stop-color="#7cb9f4" offset="1"/>
    </linearGradient>
    <linearGradient id="linearGradient838" x1="6.879" x2="1.191" y1="295.7" y2="290.8" gradientTransform="translate(-.6615 5.36e-6)" gradientUnits="userSpaceOnUse">
      <stop stop-color="#3291ea" offset="0"/>
      <stop stop-color="#afd7fa" offset="1"/>
    </linearGradient>
  </defs>
  <g transform="translate(0 -288.5)">
    <path d="m0.3969 295.4c0-0.5292-2.2e-7 -4.63-2.2e-7 -4.63-8e-8 -0.2061 0.2797-0.5261 0.5292-0.5292 0.2817-3e-3 1.058 0 1.191 0 0.05575 0 0.3379-0.0199 0.5082 0.1667 0.2607 0.2858 0.8148 0.8916 0.8148 0.8916s2.381-2e-5 2.778-1e-5c0.2646 0 0.5292 0.2797 0.5292 0.5292v3.44l-0.5292 0.5292s-5.031 8e-3 -5.432 0.0124c-0.1972 2e-3 -0.3886-0.212-0.3886-0.4093z" fill="url(#linearGradient838)" stroke="#005cb1" stroke-width=".2646px"/>
    <g transform="translate(8e-8 .5292)" shape-rendering="crispEdges">
      <rect x=".7874" y="290.1" width="7.673" height="3.175" fill="#ffff40" fill-rule="evenodd" style="paint-order:fill markers stroke"/>
      <g>
        <path d="m2.11 292.1 0.2646 0.0822c-0.04544 0.2589-0.08104 0.8-0.6551 0.8-0.5481 7.6e-4 -0.6653-0.613-0.6679-1.062 0-0.4256-0.00387-0.5312-0.00222-0.795 0.00233-0.372 0.1095-0.7885 0.6702-0.7885 0.4848 0 0.6446 0.3863 0.6566 0.7901 0.00115 0.1884-0.00146 0.2901-0.00146 0.5261-0.3352 1e-3 -0.6615 0-1.058 0 0.00637 0.464 0.00637 1.065 0.3992 1.062 0.3945-2e-3 0.3688-0.5185 0.3945-0.6144zm-0.7938-0.7116h0.7938c0-0.3969 0-0.7733-0.3969-0.7938-0.4585 0-0.3969 0.4732-0.3969 0.7938z"/>
        <path d="m2.646 293v-2.646h0.2646v0.2646c0.06968-0.1323 0.2127-0.2646 0.3969-0.2646 0.55 0 0.6615 0.6615 0.6615 0.926v1.72h-0.2646v-1.588c0-0.3969-0.06098-0.7938-0.4144-0.7938-0.3426 0-0.378 0.5568-0.3793 0.7938v1.588z"/>
        <path d="m5.821 293-0.00255-2.646h0.2671v0.2646c0.07503-0.1323 0.2075-0.2646 0.4196-0.2646 0.3741 0 0.4377 0.3147 0.5064 0.5292 0-0.0655 0.1323-0.5292 0.5292-0.5292 0.6615 0 0.6571 0.5733 0.6615 1.058l0.00636 1.588h-0.2709v-1.588c0-0.3969 0-0.7938-0.3969-0.7938s-0.3969 0.3969-0.3969 0.7938v1.588h-0.2646v-1.588c0-0.3969 0-0.7938-0.3969-0.7938s-0.3969 0.3969-0.3969 0.7938l5e-7 1.588z"/>
        <path d="m5.556 290.4v2.646h-0.2646v-0.2646c-0.06968 0.1324-0.2127 0.2646-0.3969 0.2646-0.55 0-0.6615-0.6614-0.6615-0.926v-1.72h0.2646v1.587c0 0.3969 0.06098 0.7938 0.4144 0.7938 0.3426 0 0.378-0.5568 0.3793-0.7938v-1.587z"/>
      </g>
    </g>
    <path d="m0.6615 296.1v-0.3969s1.378-1.382 1.984-1.984c0.1128-0.1121 0.2646-0.2646 0.5333-0.2625 0.00532 4e-5 1.198-2e-3 1.716-2e-3 0.1891 0 0.2983 0.0337 0.3969 0.1323 0.2094 0.2094 0.6615 0.6615 0.6615 0.6615h2.381s2e-7 0.2644 2e-7 0.3969c-0.4701 0.4701-1.455 1.455-1.455 1.455z" fill="url(#linearGradient870)" stroke="#005cb1" stroke-width=".2646px"/>
  </g>
</svg>
