<?xml version="1.0" encoding="UTF-8" standalone="no"?>
<svg
   xmlns:dc="http://purl.org/dc/elements/1.1/"
   xmlns:cc="http://creativecommons.org/ns#"
   xmlns:rdf="http://www.w3.org/1999/02/22-rdf-syntax-ns#"
   xmlns:svg="http://www.w3.org/2000/svg"
   xmlns="http://www.w3.org/2000/svg"
   xmlns:sodipodi="http://sodipodi.sourceforge.net/DTD/sodipodi-0.dtd"
   xmlns:inkscape="http://www.inkscape.org/namespaces/inkscape"
   width="32"
   height="32"
   viewBox="0 0 8.4666664 8.466667"
   version="1.1"
   id="svg17965"
   inkscape:export-filename="../../codecompletion/16x16/keyword_d.png"
   inkscape:export-xdpi="96"
   inkscape:export-ydpi="96"
   inkscape:version="1.0.2-2 (e86c870879, 2021-01-15)"
   sodipodi:docname="keyword_d_16.svg">
  <defs
     id="defs17959" />
  <sodipodi:namedview
     id="base"
     pagecolor="#ffffff"
     bordercolor="#666666"
     borderopacity="1.0"
     inkscape:pageopacity="0.0"
     inkscape:pageshadow="2"
     inkscape:zoom="45.254834"
     inkscape:cx="32.622719"
     inkscape:cy="25.677682"
     inkscape:document-units="mm"
     inkscape:current-layer="layer1"
     showgrid="true"
     units="px"
     inkscape:snap-to-guides="false"
     inkscape:snap-nodes="false"
     inkscape:snap-bbox="true"
     inkscape:bbox-paths="true"
     inkscape:bbox-nodes="true"
     inkscape:snap-bbox-edge-midpoints="true"
     inkscape:window-width="1904"
     inkscape:window-height="1041"
     inkscape:window-x="0"
     inkscape:window-y="0"
     inkscape:window-maximized="0"
     inkscape:snap-grids="false"
     inkscape:document-rotation="0">
    <inkscape:grid
       type="xygrid"
       id="grid18510"
       spacingx="0.26458333"
       dotted="false" />
  </sodipodi:namedview>
  <metadata
     id="metadata17962">
    <rdf:RDF>
      <cc:Work
         rdf:about="">
        <dc:format>image/svg+xml</dc:format>
        <dc:type
           rdf:resource="http://purl.org/dc/dcmitype/StillImage" />
        <dc:title></dc:title>
      </cc:Work>
    </rdf:RDF>
  </metadata>
  <g
     inkscape:label="Layer 1"
     inkscape:groupmode="layer"
     id="layer1"
     transform="translate(0,-292.76665)">
    <g
       id="g839"
       transform="matrix(2.0012408,0,0,2.0026916,7.0770848e-5,-293.55474)">
      <rect
         style="opacity:1;fill:#a71f12;fill-opacity:1;fill-rule:evenodd;stroke:#a71f12;stroke-width:0.198437;stroke-linecap:round;stroke-linejoin:miter;stroke-miterlimit:4;stroke-dasharray:none;stroke-dashoffset:0;stroke-opacity:1;paint-order:fill markers stroke"
         id="rect18533"
         width="4.0348959"
         height="4.0348892"
         x="0.099218749"
         y="292.86588"
         inkscape:export-xdpi="144"
         inkscape:export-ydpi="144" />
      <path
         d="m 0.34696926,293.56039 c -0.04604,0.006 -0.0821212,0.0408 -0.0822741,0.0836 l 0.002905,2.18359 c -1.8316e-4,0.004 -1.8316e-4,0.007 1.267e-5,0.0103 -5.213e-4,0.007 -5.213e-4,0.0103 1.973e-5,0.015 -4.64e-6,5.4e-4 -3.24e-6,0.002 2.83e-6,0.003 4.9313e-4,0.003 0.001692,0.005 0.002362,0.007 -4.64e-6,5.5e-4 -4.64e-6,5.5e-4 1.42e-6,8.3e-4 4.9313e-4,0.003 5.2132e-4,0.005 0.001183,0.007 -4.79e-6,5.5e-4 -3.23e-6,0.002 2.83e-6,0.003 0.001071,0.003 0.002284,0.005 0.00354,0.007 -4.52e-6,5.5e-4 -4.66e-6,5.5e-4 1.4e-6,8.3e-4 0.001633,0.003 0.004049,0.005 0.005892,0.007 -4.64e-6,5.5e-4 -4.64e-6,5.5e-4 1.4e-6,8.4e-4 0.001071,0.003 0.002284,0.005 0.00354,0.007 -4.67e-6,5.2e-4 -3.26e-6,0.002 2.81e-6,0.003 0.002237,0.002 0.004671,0.003 0.007067,0.005 -4.77e-6,5.4e-4 -3.25e-6,0.002 2.68e-6,0.003 0.00167,0.002 0.002908,0.003 0.004713,0.005 5.777e-4,5.4e-4 0.001769,0.002 0.002356,0.003 0.00167,0.002 0.002908,0.003 0.004714,0.005 5.7765e-4,0 5.9173e-4,0 0.001183,-1e-5 0.004303,0.004 0.009192,0.007 0.0141357,0.0103 5.7767e-4,0 0.001775,0 0.002353,-1e-5 0.002268,8.2e-4 0.004703,0.003 0.007066,0.004 5.7764e-4,10e-6 5.9174e-4,10e-6 0.001183,0 0.002269,8.1e-4 0.004703,0.003 0.007066,0.004 0.003437,5.3e-4 0.007091,5.3e-4 0.0105941,8.3e-4 0.005722,8.1e-4 0.0118284,0.003 0.0176567,0.003 l 0.009415,-2e-5 0.86974967,-0.004 c 0.2486132,-4.3e-4 0.4151305,-0.005 0.5142981,-0.0165 h 0.00234 c 0.094902,-0.0126 0.1954279,-0.036 0.3047325,-0.0701 0.1900151,-0.0572 0.3585122,-0.14153 0.5033893,-0.25423 0.1418492,-0.10923 0.2517708,-0.2385 0.3290306,-0.38397 0.077254,-0.14542 0.1161964,-0.29921 0.115906,-0.45864 -4.086e-4,-0.22191 -0.070229,-0.4297 -0.210315,-0.61663 -0.1401008,-0.18696 -0.3313336,-0.33012 -0.5666705,-0.42495 -0.2392499,-0.0977 -0.5439646,-0.15378 -0.9309695,-0.1531 -0.3031978,0.003 -0.65749582,-6.1e-4 -0.95819059,4e-5 z m 0.50550267,0.44931 0.40486467,-5.4e-4 c 0.1892116,-2.6e-4 0.3238218,0.007 0.4001778,0.0154 0.077404,0.0103 0.162175,0.0317 0.2519504,0.0649 0.088978,0.0326 0.1665442,0.0726 0.2331955,0.12221 -4.7e-6,5.5e-4 -3.3e-6,0.002 2.7e-6,0.003 0.1833636,0.13495 0.2698023,0.29719 0.2701991,0.51197 4.087e-4,0.21996 -0.083131,0.39124 -0.2617443,0.5349 -0.054947,0.0434 -0.1160444,0.0806 -0.1834537,0.11119 -0.063712,0.0286 -0.1468204,0.0532 -0.251765,0.0742 -0.098974,0.019 -0.2492321,0.0297 -0.4448406,0.0302 l -0.41663395,5.1e-4 -0.001952,-1.46734 z"
         id="path2242"
         style="font-style:normal;font-variant:normal;font-weight:normal;font-stretch:normal;font-size:64px;line-height:125%;font-family:'Gill Sans MT';text-align:start;writing-mode:lr-tb;text-anchor:start;display:inline;fill:#eeeeec;fill-opacity:1;stroke:none;stroke-width:0.390285"
         inkscape:connector-curvature="0"
         sodipodi:nodetypes="ccccccccccccccccccccccccccccccccccccccccccccccccccccccc" />
      <path
         d="m 3.7138121,294.32416 a 0.6747381,0.58279296 0 1 1 -1.3494762,0 0.6747381,0.58279296 0 1 1 1.3494762,0 z"
         id="path2211"
         style="display:inline;fill:#eeeeec;fill-opacity:1;fill-rule:nonzero;stroke:none;stroke-width:0.761065"
         inkscape:connector-curvature="0" />
      <path
         d="m 4.0099594,293.59658 a 0.2168017,0.1823675 0 1 1 -0.4336034,0 0.2168017,0.1823675 0 1 1 0.4336034,0 z"
         id="path2222"
         style="display:inline;fill:#eeeeec;fill-opacity:1;fill-rule:nonzero;stroke:none;stroke-width:0.24454"
         inkscape:connector-curvature="0" />
    </g>
  </g>
</svg>
