<svg width="32" height="32" version="1.1" viewBox="0 0 8.467 8.467" xmlns="http://www.w3.org/2000/svg">
  <g transform="translate(0 -292.8)">
    <g transform="matrix(2.001 0 0 2.003 7.077e-5 -293.6)">
      <rect x=".09922" y="292.9" width="4.035" height="4.035" fill="#a71f12" fill-rule="evenodd" stroke="#a71f12" stroke-linecap="round" stroke-width=".1984" style="paint-order:fill markers stroke"/>
      <g fill="#eeeeec">
        <path d="m0.347 293.6c-0.04604 6e-3 -0.08212 0.0408-0.08227 0.0836l0.002905 2.184c-1.832e-4 4e-3 -1.832e-4 7e-3 1.267e-5 0.0103-5.213e-4 7e-3 -5.213e-4 0.0103 1.973e-5 0.015-4.64e-6 5.4e-4 -3.24e-6 2e-3 2.83e-6 3e-3 4.931e-4 3e-3 0.001692 5e-3 0.002362 7e-3 -4.64e-6 5.5e-4 -4.64e-6 5.5e-4 1.42e-6 8.3e-4 4.931e-4 3e-3 5.213e-4 5e-3 0.001183 7e-3 -4.79e-6 5.5e-4 -3.23e-6 2e-3 2.83e-6 3e-3 0.001071 3e-3 0.002284 5e-3 0.00354 7e-3 -4.52e-6 5.5e-4 -4.66e-6 5.5e-4 1.4e-6 8.3e-4 0.001633 3e-3 0.004049 5e-3 0.005892 7e-3 -4.64e-6 5.5e-4 -4.64e-6 5.5e-4 1.4e-6 8.4e-4 0.001071 3e-3 0.002284 5e-3 0.00354 7e-3 -4.67e-6 5.2e-4 -3.26e-6 2e-3 2.81e-6 3e-3 0.002237 2e-3 0.004671 3e-3 0.007067 5e-3 -4.77e-6 5.4e-4 -3.25e-6 2e-3 2.68e-6 3e-3 0.00167 2e-3 0.002908 3e-3 0.004713 5e-3 5.777e-4 5.4e-4 0.001769 2e-3 0.002356 3e-3 0.00167 2e-3 0.002908 3e-3 0.004714 5e-3 5.776e-4 0 5.917e-4 0 0.001183-1e-5 0.004303 4e-3 0.009192 7e-3 0.01414 0.0103 5.777e-4 0 0.001775 0 0.002353-1e-5 0.002268 8.2e-4 0.004703 3e-3 0.007066 4e-3 5.776e-4 1e-5 5.917e-4 1e-5 0.001183 0 0.002269 8.1e-4 0.004703 3e-3 0.007066 4e-3 0.003437 5.3e-4 0.007091 5.3e-4 0.01059 8.3e-4 0.005722 8.1e-4 0.01183 3e-3 0.01766 3e-3l0.009415-2e-5 0.8697-4e-3c0.2486-4.3e-4 0.4151-5e-3 0.5143-0.0165h0.00234c0.0949-0.0126 0.1954-0.036 0.3047-0.0701 0.19-0.0572 0.3585-0.1415 0.5034-0.2542 0.1418-0.1092 0.2518-0.2385 0.329-0.384 0.07725-0.1454 0.1162-0.2992 0.1159-0.4586-4.086e-4 -0.2219-0.07023-0.4297-0.2103-0.6166-0.1401-0.187-0.3313-0.3301-0.5667-0.425-0.2392-0.0977-0.544-0.1538-0.931-0.1531-0.3032 3e-3 -0.6575-6.1e-4 -0.9582 4e-5zm0.5055 0.4493 0.4049-5.4e-4c0.1892-2.6e-4 0.3238 7e-3 0.4002 0.0154 0.0774 0.0103 0.1622 0.0317 0.252 0.0649 0.08898 0.0326 0.1665 0.0726 0.2332 0.1222-4.7e-6 5.5e-4 -3.3e-6 2e-3 2.7e-6 3e-3 0.1834 0.135 0.2698 0.2972 0.2702 0.512 4.087e-4 0.22-0.08313 0.3912-0.2617 0.5349-0.05495 0.0434-0.116 0.0806-0.1835 0.1112-0.06371 0.0286-0.1468 0.0532-0.2518 0.0742-0.09897 0.019-0.2492 0.0297-0.4448 0.0302l-0.4166 5.1e-4 -0.001952-1.467z"/>
        <path d="m3.714 294.3a0.6747 0.5828 0 1 1-1.349 0 0.6747 0.5828 0 1 1 1.349 0z"/>
        <path d="m4.01 293.6a0.2168 0.1824 0 1 1-0.4336 0 0.2168 0.1824 0 1 1 0.4336 0z"/>
      </g>
    </g>
  </g>
</svg>
