<svg width="32" height="32" version="1.1" viewBox="0 0 8.467 8.467" xmlns="http://www.w3.org/2000/svg">
  <g transform="translate(0 -288.5)">
    <g aria-label="C++">
      <g transform="matrix(2.024 0 0 1.999 0 -296.8)" fill="#04049b">
        <path d="m1.544 293.2q-0.5251 0-0.8168 0.4411-0.2917 0.4382-0.2917 1.204 0 0.7566 0.3029 1.218 0.3052 0.4586 0.8235 0.4586 0.6642 0 0.9986-0.8559l0.3501 0.2279q-0.1952 0.5316-0.5498 0.8092-0.3523 0.2775-0.819 0.2775-0.478 0-0.828-0.2571-0.3478-0.26-0.5318-0.7391-0.1818-0.482-0.1818-1.139 0-0.9844 0.4084-1.542 0.4084-0.5579 1.131-0.5579 0.5049 0 0.8437 0.2571 0.3388 0.2571 0.4982 0.7624l-0.4062 0.1753q-0.11-0.3593-0.3545-0.5492-0.2423-0.1899-0.5767-0.1899z" stroke-width=".1315px"/>
        <path d="m3.542 295v0.6781h-0.2052v-0.6781h-0.5919v-0.2313h0.5919v-0.6781h0.2052v0.6781h0.5919v0.2313z" stroke="#04049b" stroke-width=".09865"/>
        <path d="m1.69 295v0.6781h-0.2052v-0.6781h-0.5919v-0.2313h0.5919v-0.6781h0.2052v0.6781h0.5919v0.2313z" stroke="#04049b" stroke-width=".09865"/>
      </g>
    </g>
  </g>
</svg>
