<svg width="32" height="32" shape-rendering="crispEdges" version="1.1" viewBox="0 0 8.467 8.467" xmlns="http://www.w3.org/2000/svg" xmlns:xlink="http://www.w3.org/1999/xlink">
  <defs>
    <linearGradient id="linearGradient870" x1="7.938" x2="3.175" y1="294.5" y2="293.6" gradientTransform="matrix(1.059 0 0 1 -.4903 0)" gradientUnits="userSpaceOnUse">
      <stop stop-color="#e8ae11" offset="0"/>
      <stop stop-color="#f7d06b" offset="1"/>
    </linearGradient>
    <linearGradient id="linearGradient838" x1="6.879" x2="1.191" y1="295.7" y2="290.8" gradientTransform="matrix(1 0 0 .9975 -.6615 .7183)" gradientUnits="userSpaceOnUse">
      <stop stop-color="#ecb523" offset="0"/>
      <stop stop-color="#fde194" offset="1"/>
    </linearGradient>
    <linearGradient id="linearGradient865" x1="8.731" x2="11.77" y1="290" y2="293.2" gradientTransform="matrix(.8667 0 0 1 -3.358 .215)" gradientUnits="userSpaceOnUse">
      <stop stop-color="#c4c4c3" offset="0"/>
      <stop stop-color="#aaa" offset="1"/>
    </linearGradient>
    <linearGradient id="linearGradient837" x1="1.852" x2="1.852" y1="293.8" y2="290.1" gradientUnits="userSpaceOnUse">
      <stop stop-color="#636363" offset="0"/>
      <stop stop-color="#7a7979" offset="1"/>
    </linearGradient>
  </defs>
  <g transform="translate(0 -288.5)">
    <g>
      <path d="m0.3969 295.4c0-0.5279-2.2e-7 -4.619-2.2e-7 -4.619-8e-8 -0.2056 0.2797-0.5248 0.5292-0.5279 0.2817-3e-3 1.058 0 1.191 0 0.05575 0 0.3379-0.0199 0.5082 0.1663 0.2607 0.2851 0.8148 0.8894 0.8148 0.8894s2.381-2e-5 2.778-1e-5c0.2646 0 0.5292 0.279 0.5292 0.5278v3.431l-0.5292 0.5279s-5.031 8e-3 -5.432 0.0124c-0.1972 2e-3 -0.3886-0.2115-0.3886-0.4083z" fill="url(#linearGradient838)" stroke="#b78500" stroke-width=".2646px"/>
      <rect x="3.836" y="289.7" width="3.44" height="3.969" rx="0" ry=".7004" fill="url(#linearGradient865)" stroke="#646465" stroke-width=".2646"/>
      <path d="m0.6615 296.1v-0.3969s1.378-1.382 1.984-1.984c0.1128-0.1121 0.2646-0.2646 0.5333-0.2625 0.00532 4e-5 1.198-2e-3 1.716-2e-3 0.1891 0 0.2983 0.0337 0.3969 0.1323 0.2094 0.2094 0.6615 0.6615 0.6615 0.6615h2.381s2e-7 0.2644 2e-7 0.3969c-0.4701 0.4701-1.455 1.455-1.455 1.455z" fill="url(#linearGradient870)" stroke="#b78500" stroke-width=".2646px"/>
    </g>
    <rect x="1.588" y="290.1" width=".5292" height="3.704" fill="url(#linearGradient837)"/>
  </g>
</svg>
