<svg width="32" height="32" shape-rendering="crispEdges" version="1.1" viewBox="0 0 8.467 8.467" xmlns="http://www.w3.org/2000/svg" xmlns:xlink="http://www.w3.org/1999/xlink">
  <defs>
    <linearGradient id="h" x1="2.117" x2="1.323" y1="294.9" y2="292.4" gradientTransform="matrix(1.228 0 0 1.228 -10.6 -69.69)" gradientUnits="userSpaceOnUse">
      <stop stop-color="#9bc3d4" offset="0"/>
      <stop stop-color="#a8cbda" offset=".5"/>
      <stop stop-color="#e8f3f6" offset=".625"/>
      <stop stop-color="#f1f9fa" offset="1"/>
    </linearGradient>
    <linearGradient id="g" x1="-2.117" x2="-1.852" y1="295.7" y2="295.1" gradientTransform="matrix(1.228 0 0 1.228 -3.457 -69.69)" gradientUnits="userSpaceOnUse">
      <stop stop-color="#e5aa09" offset="0"/>
      <stop stop-color="#dfd15a" offset="1"/>
    </linearGradient>
  </defs>
  <g transform="translate(0 -288.5)">
    <g shape-rendering="crispEdges" stroke-width=".1962px">
      <path transform="matrix(1.348 0 0 1.348 14.22 -100.5)" d="m-7.192 292.899 1.787 1.787c.324.324 1.299-.65.974-.975l-1.786-1.787z" fill="url(#g)" fill-rule="evenodd" stroke="#c68e28"/>
      <path transform="matrix(1.348 0 0 1.348 14.22 -100.5)" d="m-7.192 292.899-.325-.325s-1.461.487-2.11-.163a3.179 3.179 0 0 1-.813-1.462l.325-.325.65.65c.324.325.812.812 1.624 0s.324-1.3 0-1.624l-.65-.65.325-.325s.812.163 1.461.812c.65.65.163 2.112.163 2.112l.325.325" fill="url(#h)" fill-rule="evenodd" stroke="#417e9a"/>
      <path transform="matrix(1.348 0 0 1.348 14.22 -100.5)" d="m-7.512 292.57.97-.97" fill="none" stroke="#417e9a"/>
    </g>
  </g>
</svg>
