<svg width="32" height="32" shape-rendering="crispEdges" version="1.1" viewBox="0 0 8.467 8.467" xmlns="http://www.w3.org/2000/svg" xmlns:xlink="http://www.w3.org/1999/xlink">
  <defs>
    <linearGradient id="e" x1="513.2" x2="531.9" y1="342.1" y2="318" gradientTransform="translate(-106.6 44.41)" gradientUnits="userSpaceOnUse">
      <stop stop-color="#000100" offset="0"/>
      <stop stop-color="#3d01aa" stop-opacity="0" offset="1"/>
    </linearGradient>
    <linearGradient id="f" x1="259.7" x2="251.4" y1="349.8" y2="354.3" gradientTransform="translate(-107.1 44.41)" gradientUnits="userSpaceOnUse">
      <stop stop-color="#0f0" stop-opacity="0" offset="0"/>
      <stop stop-color="#000100" offset="1"/>
    </linearGradient>
    <linearGradient id="c">
      <stop stop-color="#fff" offset="0"/>
      <stop stop-color="#fff" stop-opacity="0" offset=".509"/>
      <stop stop-color="#fff" stop-opacity="0" offset="1"/>
    </linearGradient>
    <linearGradient id="d">
      <stop stop-color="#fff" offset="0"/>
      <stop stop-color="#fff" stop-opacity="0" offset="1"/>
    </linearGradient>
    <radialGradient id="g" cx="342.7" cy="113.4" r="114.9" gradientTransform="matrix(5.051 -.6492 .2113 1.392 -1582 200.9)" gradientUnits="userSpaceOnUse" xlink:href="#c"/>
    <radialGradient id="h" cx="277.9" cy="-297.5" r="114.9" gradientTransform="matrix(-.06984 3.413 -.172 -.0032 499.2 -1038)" gradientUnits="userSpaceOnUse" xlink:href="#c"/>
    <radialGradient id="i" cx="101.6" cy="138.8" r="92.16" gradientTransform="matrix(.1567 .0021 -.01807 1.347 424.1 -15.43)" gradientUnits="userSpaceOnUse" xlink:href="#d"/>
    <radialGradient id="j" cx="23.18" cy="503.2" r="113.3" gradientTransform="matrix(.02975 .2334 -1.213 .1547 850.9 343.3)" gradientUnits="userSpaceOnUse" xlink:href="#d"/>
    <radialGradient id="k" cx="-364.5" cy="503.5" r="85.5" gradientTransform="matrix(.00842 .06495 -.7117 .09224 856.1 377.6)" gradientUnits="userSpaceOnUse" xlink:href="#d"/>
  </defs>
  <g shape-rendering="crispEdges" stroke-width=".7483">
    <path transform="matrix(.01334 0 0 .01334 -.789 -.871)" d="m437.3 411c-0.294-4.808 0.575-13.26 9.493-14.21 78.4-8.372 172-18.44 172-18.44 8.368 0 13.64-1.195 12.75 12.18-7.222 108.9-5.043 80.88-11.98 174.7 0.05 7.752-2.175 9.637-5.507 10.38-85.3 18.88-48.94 11.38-166.3 36.36-6.854 1.444-10.62 4.014-10.55-9.972 0.588-115 0.295-66.74 0.17-191z" fill="#5702f4" fill-rule="evenodd" opacity=".99"/>
    <path transform="matrix(.01334 0 0 .01334 -.789 -.871)" d="m438 406s1.131-8.06 8.188-8.743c88.96-8.596 179.8-18.73 179.8-18.73l-84.51-28.03-168.5 3.886s-16.82 1.115-13.04 3.608c30.7 20.24 78.27 48.29 77.99 48.02z" fill="#3d01aa" fill-rule="evenodd"/>
    <path transform="matrix(.01334 0 0 .01334 -.789 -.871)" d="m171.8 646.2c-2.99-2.969-2.69-10.04-14.19-49.53l-13.38-45.95-6.122-87.86c-5.663-81.29-7.229-88.24-5.755-90.49 0.877-1.338 2.706-2.911 2.91-2.898 0.399 0.027 6.162 11.84 12.02 25.44 8.206 19.03 10.67 24.93 10.69 28.39 0.017 2.475 2.532 42.23 5.59 87.33 3.056 45.1 6.252 92.35 7.1 105 0.85 12.65 1.677 24.06 2.036 25.32 0.254 0.884 3.144 4.981 6.86 4.176 19.24-4.168-13.38 3.757 133.8-27.52 45.85-9.742 70.94-17.05 72.56-15.26 1.069 1.178 10.2-0.422-107.7 24.34-53.56 11.25-99.31 21.1-100.6 21.24-1.862 0.197-3.397 0.506-5.87-1.715zm260.2-41.82a1485 1485 0 0 1-16.83-17.75c-4.6-4.95-11.56-12.38-15.48-16.5l-8.777-9.997-2.173-79.64c0.045-78.46-2.255-82.23-4.017-84.18-1.015-1.122-3.384-2.999-11.03-7.562l-12.52-8.852v-6.431c0-2.316-0.77-4.7-0.79-4.7-5.591 0.16-3.87 0.063-8.25 0.429-12.4 1.034-127.9 12.06-184.2 16.94-9.701 0.84-5.37 4.071-27.52-33l-9.126-15.5-6.752-98.23c-4.778-69.52-6.468-99.04-5.782-101 0.949-2.7 4.317-4.517 18.79-13.24 7.318-4.407 14.74-6.244 13.02-6.03-2.592 0.323-5.24 55.15-1.4 114.5 3.84 59.38 7.496 116.1 8.124 126 1.243 19.6 1.955 21.7 7.77 22.97 3.555 0.777 223.6-18.07 225.4-20.92 2.08-3.135 2.5-0.7 0.392 1.814-1.933 2.303-6.498 3.624-10.96 3.633-1.512 3e-3 -2.745 0.343-2.739 0.755 0.012 0.813 8.265 5.881 39.99 24.56 11.27 6.638 21.01 12.41 20.99 13.13-0.201 7.452 0.327 44.51 0.372 102.1l-0.676 101 2.344 2.62c1.788 0.736 3.664 0.606 4.515 0.606 1.265 0 147.3-31.67 171-37.36 1.864-0.449 1.415-6.327 0.194 0.606-0.47 2.67-167.3 37.97-171.8 37.97-4.774 0-2.638 1.723-12.09-8.75zm-8.879-243.4c-2.75-1.095-9.988-4.698-16.76-8.007l-17.31-5.183 0.319-107.4 0.318-107.4 7.496-1.31c1.375-0.262 6.775-0.969 12-1.57 5.225-0.602 16.48-1.52 18.3-1.74 2.789-0.34 3.213-0.129 2.74 1.364-0.96 3.022-6.876 36.52-7.175 132.6l-0.288 92.71 4.406 4.69 15.26-1.332c76.08-6.64 164.3-15.87 165.6-16.95 1.451-1.133 1.472-1.077 0.202 0.54-0.78 0.992-1.68 2.96-2.68 3.496-1.937 1.037-30.68 3.664-115.9 11.61-29.15 2.717-42.85 4.13-57 5.403-5.498 0.5-6.303-0.232-9.555-1.527z" fill="#020106" stroke-width=".7483"/>
    <g fill-rule="evenodd">
      <path transform="matrix(.01334 0 0 .01334 -.789 -.871)" d="m157.8 429c-0.295-4.808 0.575-13.26 9.493-14.21 78.4-8.372 215.3-22.05 215.3-22.05 5.593 0 7.556 2.944 7.752 12.46 0.22 10.6 0.785 99.48 1.617 186.9 0.05 7.752-1.359 9.011-10.22 10.93-34.81 7.536-81.69 17.49-199.6 41.91-6.854 1.445-10.4 4.258-11.38-9.97-1.07-15.32-7.476-106.7-12.87-206z" fill="#ffff2c"/>
      <path transform="matrix(.01334 0 0 .01334 -.789 -.871)" d="m438 406s1.138-7.99 8.188-8.743c12.92-1.38 16.38-2.22 26.37-3.053 0.376 0.176-68.69-39.55-68.69-39.55l-30.81-0.277s-16.83 1.115-13.04 3.608c30.7 20.24 78.27 48.29 77.99 48.02z" fill="url(#e)"/>
      <path transform="matrix(.01334 0 0 .01334 -.789 -.871)" d="m157.9 426.4s1.957-10.92 7.369-11.2c4.592-0.236 219.4-22.29 219.4-22.29l-43.58-27.2-193.4 1.388s-15.3-1.087-15.91 7.405c-0.027 0.367 26.39 52.17 26.12 51.9z" fill="#b8b81e"/>
      <path transform="matrix(.01334 0 0 .01334 -.789 -.871)" d="m145.6 362s5.986 10.89 13.84 20.21l11.78-8.635-17.27-15.11z" fill="#000100"/>
      <path transform="matrix(.01334 0 0 .01334 -.789 -.871)" d="m141.2 132.6c-0.294-4.808-1.472-14.03 13.93-13.93 21.98 0.139 229.4 5.986 229.4 5.986 5.594 0 7.556 2.944 7.753 12.46 0.22 10.6 0.785 217.2 0.785 217.2 0 7.752-3.14 10.05-12.17 10.93-11.78 1.151-213.5 19.43-213.5 19.43-4.121 0.393-10.4 0.65-11.38-13.58-1.07-15.32-14.41-231.9-14.82-238.4z" fill="#ff220c"/>
      <path transform="matrix(.01334 0 0 .01334 -.789 -.871)" d="m172.9 414.4c-13.88 1.526-12.56 3.924-15.44 12.99-0.043 0.136-25.72-52.77-25.72-52.77s-1.661-8.539 18.69-7.428c0.021 0 22.47 47.21 22.47 47.21z" fill="url(#f)"/>
      <path transform="matrix(.01334 0 0 .01334 -.789 -.871)" d="m422.4 141.4c0-6.967-1.08-14.23 14.33-14.13 21.98 0.138 176 3.63 176 3.63 5.593 0 7.989 3.344 7.555 12.86-0.564 12.37-8.635 188.5-8.635 188.5-0.49 8.636-3.925 11.32-12.95 12.21-11.78 1.152-167.8 15.6-167.8 15.6-3.435 0.392-10.3 1.238-10.11-8.87 0.299-15.35 1.679-198.5 1.57-209.8z" fill="#55ff2d"/>
      <path transform="matrix(.01334 0 0 .01334 -.789 -.871)" d="m142.3 133.1c-0.292-4.384-1.46-12.8 13.81-12.71 21.79 0.126 227.4 5.458 227.4 5.458 5.544 0 7.49 2.685 7.684 11.36 0.219 9.669 0.778 198 0.778 198 0 7.07-3.112 9.162-12.06 9.967-11.67 1.05-211.6 17.72-211.6 17.72-4.085 0.358-10.31 0.593-11.28-12.38-1.061-13.97-14.29-211.4-14.69-217.4z" fill="url(#g)"/>
      <path transform="matrix(.01334 0 0 .01334 -.789 -.871)" d="m424.3 141.4c-0.292-4.385-1.46-12.8 13.81-12.71 21.79 0.126 227.4 5.458 227.4 5.458 5.543 0 7.489 2.685 7.683 11.36 0.22 9.668 0.778 198 0.778 198 0 7.069-3.112 9.161-12.06 9.966-11.67 1.051-211.6 17.72-211.6 17.72-4.085 0.358-10.31 0.592-11.28-12.38-1.061-13.97-14.29-211.4-14.69-217.4z" fill="url(#h)"/>
      <path transform="matrix(.01334 0 0 .01334 -.789 -.871)" d="m155.7 371.3s2.776 13.88 10.27 13.32c7.493-0.555 173.7-15.82 181.5-16.65 7.771-0.832 7.771 1.11 7.771 1.11s-177.9 16.38-188.7 17.21c-10.82 0.833-13.32-14.99-13.32-14.99z" fill="#000100"/>
      <path transform="matrix(.01334 0 0 .01334 -.789 -.871)" d="m427.6 139.6c-0.215-3.943-1.076-11.51 10.19-11.43 16.07 0.113 167.8 4.909 167.8 4.909 4.09 0 5.526 2.414 5.67 10.22 0.16 8.696 0.573 178.1 0.573 178.1 0 6.358-2.296 8.24-8.898 8.964-8.613 0.945-156.2 15.93-156.2 15.93-3.015 0.322-19.82 2.198-20.54-9.471-0.783-12.56 1.67-191.8 1.376-197.2z" fill="url(#i)"/>
      <path transform="matrix(.01334 0 0 .01334 -.789 -.871)" d="m157.8 422.7c-0.265-3.562-1.323-10.4 12.52-10.32 19.75 0.103 206.2 4.435 206.2 4.435 5.026 0 6.79 2.18 6.966 9.232 0.199 7.855 0.706 160.9 0.706 160.9 0 5.743-2.822 7.442-10.94 8.097-10.58 0.853-191.9 14.39-191.9 14.39-3.703 0.291-9.347 0.482-10.23-10.06-0.962-11.35-12.95-171.8-13.32-176.6z" fill="url(#j)"/>
      <path transform="matrix(.01334 0 0 .01334 -.789 -.871)" d="m440.9 411.7c-0.2-3.242-0.999-9.46 9.453-9.393 14.91 0.093 170.1-15.95 170.1-15.95 3.794 0 5.126 1.985 5.259 8.4 0.15 7.148-13.9 166.4-13.9 166.4 0 5.225-2.13 6.772-8.255 7.367-7.99 0.777-149.3 34.19-149.3 34.19-9.457 16.92-7.057 0.438-7.722-9.153-0.727-10.32-5.34-177.4-5.612-181.8z" fill="url(#k)"/>
    </g>
  </g>
  <path transform="matrix(.2646 0 0 .2646 15.49 -2.11)" d="m-47.9 24.11 7.905 13.39 12.03-25.89-12.06 18.36z" fill="#f03100" shape-rendering="crispEdges" stroke="#ff0829" stroke-linecap="round" stroke-linejoin="round" stroke-width="1px"/>
</svg>
