<svg xmlns="http://www.w3.org/2000/svg" xmlns:xlink="http://www.w3.org/1999/xlink" width="32" height="32" viewBox="0 0 8.467 8.467" shape-rendering="crispEdges">
    <defs>
        <linearGradient id="a">
            <stop style="stop-color:#3291ea;stop-opacity:1" offset="0"/>
            <stop style="stop-color:#7cb9f4;stop-opacity:1" offset="1"/>
        </linearGradient>
        <linearGradient xlink:href="#a" id="f" x1="7.938" y1="294.486" x2="3.175" y2="293.56" gradientUnits="userSpaceOnUse" gradientTransform="matrix(1.05882 0 0 1 -.49 0)"/>
        <linearGradient gradientTransform="translate(-.661)" xlink:href="#b" id="e" x1="6.879" y1="295.677" x2="1.191" y2="290.782" gradientUnits="userSpaceOnUse"/>
        <linearGradient id="b">
            <stop style="stop-color:#3291ea;stop-opacity:1" offset="0"/>
            <stop style="stop-color:#afd7fa;stop-opacity:1" offset="1"/>
        </linearGradient>
        <linearGradient xlink:href="#c" id="h" x1="21" y1="1041.362" x2="8" y2="1023.362" gradientUnits="userSpaceOnUse" gradientTransform="matrix(.58333 0 0 .58333 -.375 437.36)"/>
        <linearGradient id="c">
            <stop style="stop-color:#9bc3d4;stop-opacity:1" offset="0"/>
            <stop style="stop-color:#f1f9fa;stop-opacity:1" offset="1"/>
        </linearGradient>
        <linearGradient xlink:href="#d" id="g" x1="-.568" y1="36" x2="10.568" y2="36" gradientUnits="userSpaceOnUse"/>
        <linearGradient id="d">
            <stop style="stop-color:#b69526;stop-opacity:1" offset="0"/>
            <stop style="stop-color:#dfc25a;stop-opacity:1" offset="1"/>
        </linearGradient>
    </defs>
    <g transform="translate(0 -288.533)">
        <path style="fill:url(#e);fill-opacity:1;stroke:#005cb1;stroke-width:.26458335px;stroke-linecap:butt;stroke-linejoin:miter;stroke-opacity:1;filter:url(#filter847)" d="M.397 295.412v-4.63c0-.206.28-.526.529-.529.282-.003 1.058 0 1.19 0 .056 0 .339-.02.509.167.26.286.815.891.815.891h2.778c.264 0 .529.28.529.53v3.44l-.53.528s-5.03.008-5.432.013c-.197.002-.388-.212-.388-.41z"/>
        <path style="fill:url(#f);fill-opacity:1;stroke:#005cb1;stroke-width:.26458335px;stroke-linecap:butt;stroke-linejoin:miter;stroke-opacity:1;filter:url(#filter843)" d="M.661 296.074v-.397s1.378-1.381 1.985-1.984c.113-.112.264-.265.533-.263l1.716-.002c.189 0 .298.034.397.132l.661.662h2.381v.397l-1.455 1.455z"/>
        <rect style="fill:url(#g);fill-opacity:1;stroke:#644e00;stroke-width:.65720999;stroke-linecap:round;stroke-linejoin:miter;stroke-miterlimit:4;stroke-dasharray:none;stroke-opacity:1;shape-rendering:crispEdges;filter:url(#filter839)" width="10" height="4" y="34" transform="matrix(-.31682 -.3263 .25617 -.24775 -2.476 304.386)" ry="1.5"/>
        <circle transform="matrix(.27997 0 0 .27958 1.58 1.295)" style="display:inline;fill:url(#h);fill-opacity:1;stroke:#417e9a;stroke-width:.94569767;stroke-miterlimit:4;stroke-dasharray:none;stroke-opacity:1;shape-rendering:crispEdges;filter:url(#filter835)" cx="7.5" cy="1039.862" r="7"/>
    </g>
</svg>
