<svg width="32" height="32" shape-rendering="crispEdges" version="1.1" viewBox="0 0 8.467 8.467" xmlns="http://www.w3.org/2000/svg" xmlns:xlink="http://www.w3.org/1999/xlink">
  <defs>
    <linearGradient id="c" x1="7.805" x2=".661" y1="289.9" y2="289.9" gradientTransform="matrix(1.088 0 0 1.171 -4.142 -41.92)" gradientUnits="userSpaceOnUse">
      <stop stop-color="#0349ff" offset="0"/>
      <stop stop-color="#96b3ff" offset="1"/>
    </linearGradient>
    <filter id="d" x="0" y="0" width="1" height="1" color-interpolation-filters="sRGB">
      <feColorMatrix values="0.21 0.72 0.072 0.15 0 0.21 0.72 0.072 0.15 0 0.21 0.72 0.072 0.15 0 0 0 0 1 0"/>
    </filter>
    <filter id="b" x="-.01593" y="-.01875" width="1.032" height="1.038" color-interpolation-filters="sRGB">
      <feColorMatrix values="0.21 0.72 0.072 0.15 0 0.21 0.72 0.072 0.15 0 0.21 0.72 0.072 0.15 0 0 0 0 1 0"/>
    </filter>
  </defs>
  <g transform="translate(0 -288.5)">
    <path transform="matrix(1 0 0 1.025 3.703 -15.3)" d="m-3.571 296.7h8.203v6.969h-8.203z" fill="#ededed" filter="url(#b)" stroke="#1253c9" stroke-width=".2613"/>
    <rect transform="matrix(1 0 0 1.025 3.703 -15.3)" x="-3.437" y="296.8" width="7.935" height="1.549" ry="0" fill="url(#c)" filter="url(#filter831)"/>
    <g transform="matrix(1.635 0 0 1 -.237 -1.587)" fill="#747474" filter="url(#d)" shape-rendering="crispEdges" stroke-width=".7821">
      <path transform="matrix(.2737 0 0 .2646 -.023 291.9)" d="M2.982 9.281v.983h12.569V9.28Z" color-rendering="auto" dominant-baseline="auto" image-rendering="auto" shape-rendering="auto" style="font-feature-settings:normal;font-variant-alternates:normal;font-variant-caps:normal;font-variant-ligatures:normal;font-variant-numeric:normal;font-variant-position:normal;isolation:auto;mix-blend-mode:normal;shape-padding:0;text-decoration-color:#000;text-decoration-line:none;text-decoration-style:solid;text-indent:0;text-orientation:mixed;text-transform:none;white-space:normal"/>
      <path transform="matrix(-.08073 0 0 -.07804 4.419 294.5)" d="m10.84 10.17-13.05-10.16 13.05-10.19z" fill-rule="evenodd"/>
    </g>
  </g>
</svg>
