<svg width="32" height="32" shape-rendering="crispEdges" version="1.1" viewBox="0 0 8.467 8.467" xmlns="http://www.w3.org/2000/svg" xmlns:xlink="http://www.w3.org/1999/xlink">
  <defs>
    <linearGradient id="b" x1="7.805" x2=".661" y1="289.9" y2="289.9" gradientTransform="matrix(1.088 0 0 1.171 -4.142 -41.92)" gradientUnits="userSpaceOnUse">
      <stop stop-color="#0349ff" offset="0"/>
      <stop stop-color="#96b3ff" offset="1"/>
    </linearGradient>
  </defs>
  <g transform="translate(0 -288.5)">
    <path transform="matrix(1 0 0 1.025 3.703 -15.3)" d="m-3.571 296.7h8.203v6.969h-8.203z" fill="#ededed" stroke="#1253c9" stroke-width=".2613"/>
    <rect transform="matrix(1 0 0 1.025 3.703 -15.3)" x="-3.437" y="296.8" width="7.935" height="1.549" ry="0" fill="url(#b)"/>
    <g shape-rendering="crispEdges" stroke-width=".7821">
      <path transform="matrix(.4474 0 0 .2646 -.274 290.3)" d="M2.982 9.281v.983h12.569V9.28Z" color-rendering="auto" dominant-baseline="auto" image-rendering="auto" shape-rendering="auto" style="font-feature-settings:normal;font-variant-alternates:normal;font-variant-caps:normal;font-variant-ligatures:normal;font-variant-numeric:normal;font-variant-position:normal;isolation:auto;mix-blend-mode:normal;shape-padding:0;text-decoration-color:#000;text-decoration-line:none;text-decoration-style:solid;text-indent:0;text-orientation:mixed;text-transform:none;white-space:normal"/>
      <path transform="matrix(-.132 0 0 -.07804 6.987 292.9)" d="m10.84 10.17-13.05-10.16 13.05-10.19z" fill-rule="evenodd"/>
    </g>
    <path transform="matrix(.2646 0 0 .2646 14.89 286.4)" d="m-47.9 24.11 7.905 13.39 12.03-25.89-12.06 18.36z" fill="#f03100" shape-rendering="crispEdges" stroke="#ff0829" stroke-linecap="round" stroke-linejoin="round" stroke-width="1px"/>
  </g>
</svg>
