<svg width="32" height="32" shape-rendering="crispEdges" version="1.1" viewBox="0 0 8.467 8.467" xmlns="http://www.w3.org/2000/svg">
  <g transform="translate(0 -288.5)">
    <g>
      <path d="m1.19 296.9v-8.202h3.881l1.94 2.237v5.965z" fill="#f2f2f9" stroke="#9c9cb6" stroke-width=".2646"/>
      <path d="m4.895 288.7v2.38h2.115" fill="#d0d0df" stroke="#9c9cb6" stroke-width=".2646px"/>
      <path d="m2.514 293.4h3.175v2.117h-3.175z" fill="#646464" stroke="#646464" stroke-width=".2646"/>
    </g>
    <path d="M3.175 293.296v-1.567c0-.072.198-.285.265-.285h1.322c.067 0 .265.225.265.285v1.567" fill="none" stroke="#646464" stroke-width=".5292"/>
    <path d="m1.323 296.2h1.058v0.529h-1.058zm0-1.058h1.058v0.529h-1.058zm0-1.058h1.058v0.529h-1.058zm0-1.059h1.058v0.529h-1.058z" fill="#d7af00" fill-rule="evenodd" shape-rendering="crispEdges" style="paint-order:stroke markers fill"/>
    <path d="m5.821 296.2h1.058v0.529h-1.058zm0-1.058h1.058v0.529h-1.058zm0-1.058h1.058v0.529h-1.058zm0-1.059h1.058v0.529h-1.058z" fill="#2bcc2a" fill-rule="evenodd" shape-rendering="crispEdges" style="paint-order:stroke markers fill"/>
  </g>
</svg>
