<svg width="32" height="32" shape-rendering="crispEdges" version="1.1" viewBox="0 0 8.467 8.467" xmlns="http://www.w3.org/2000/svg">
  <defs>
    <clipPath id="a">
      <path d="M7.011 294.09v-3.175l-1.94-2.25h-3.88v2.382h.793c.662 0 1.72.794 1.852 1.19.133.53.53 1.059.53 1.059s.595.661.86.661h1.19c.132 0 .463.794.463.794h.132zm0 1.455v1.323h-5.82v-4.895h-.133.265c.33 0 1.19.397 1.463.95.466.945 1.447 2.093 1.712 2.093H5.82c.132 0 .397.529.529.529h.794" fill="#f2f2f9" stroke="#9c9cb6" stroke-width=".2646"/>
    </clipPath>
  </defs>
  <g transform="translate(0 -288.5)">
    <path d="M7.011 294.09v-3.175l-1.94-2.25h-3.88v2.382h.793c.662 0 1.72.794 1.852 1.19.133.53.53 1.059.53 1.059s.595.661.86.661h1.19c.132 0 .463.794.463.794h.132zm0 1.455v1.323h-5.82v-4.895h-.133.265c.33 0 1.19.397 1.463.95.466.945 1.447 2.093 1.712 2.093H5.82c.132 0 .397.529.529.529h.794" fill="#f2f2f9" stroke="#9c9cb6" stroke-width=".2646"/>
    <path d="m-1.323 292 4.233-4.233h1.06l-5.292 5.291v1.059l6.35-6.35h1.058l-7.408 7.408v1.058l8.467-8.466h1.058l-9.525 9.525v1.058l10.05-10.05v1.058l-8.996 8.996h1.058l7.937-7.938v1.059l-6.879 6.879h1.058l5.821-5.82v1.057l-4.762 4.763h1.058l3.704-3.66v1.014l-2.646 2.646h1.588" clip-path="url(#a)" fill="none" shape-rendering="crispEdges" stroke="red" stroke-width=".344"/>
    <path d="m4.895 288.7v2.38h2.115" fill="#d0d0df" stroke="#9c9cb6" stroke-width=".2646px"/>
    <path d="M7.011 294.09v-3.175l-1.94-2.25h-3.88v2.382h.793c.662 0 1.72.794 1.852 1.19.133.53.53 1.059.53 1.059s.595.661.86.661h1.19c.132 0 .463.794.463.794h.132zm0 1.455v1.323h-5.82v-4.895h-.133.265c.33 0 1.19.397 1.463.95.466.945 1.447 2.093 1.712 2.093H5.82c.132 0 .397.529.529.529h.794" fill="none" stroke="#9c9cb6" stroke-width=".2646"/>
  </g>
</svg>
