<svg xmlns="http://www.w3.org/2000/svg" width="32" height="32" viewBox="0 0 8.467 8.467" shape-rendering="crispEdges">
    <defs>
        <linearGradient id="a">
            <stop style="stop-color:#ffb854;stop-opacity:1" offset="0"/>
            <stop style="stop-color:#ffd59a;stop-opacity:1" offset="1"/>
        </linearGradient>
    </defs>
    <g style="display:inline">
        <path style="fill:#a00000;stroke:#a00000;stroke-width:.264583px;stroke-linecap:butt;stroke-linejoin:miter;stroke-opacity:1;fill-opacity:1;fill-rule:nonzero" d="m1.323 289.988.008-.008c.006-.005.002-.01.008-.017.002-.01.009-.007.02-.019.004-.003.046-.015.063-.032.03 0 .043-.014.058-.03.03-.002.01-.04.028-.057-.001-.03.022-.017.044-.039.009-.003.076-.021.104-.05.045.01.046-.013.07-.037.026.005.027-.086.057-.116-.007-.052.042-.014.066-.038.026.003.1-.063.13-.094.058-.02.039-.01.055-.027.033-.005.014-.057.04-.084-.01-.033.089-.074.115-.102.05-.03.026-.046.038-.059.017-.036.015-.02.031-.036.006-.01.02-.033.042-.055-.004-.007.081-.033.106-.054.044.003.027-.039.038-.05.01-.025.007-.023.014-.03a.038.038 0 0 1 .025-.031c.01-.003.036.013.042.013.002 0 .006-.003.01 0 .005-.001.016.013.023.019.008.01.003.006.009.01.002.007.027.028.038.04.015.016.02.007.028.014.018.005.007.014.019.026.001.008.04.013.057.032.026-.004.012.02.028.039 0 .007.018.067.038.091-.006.04.013.052.028.07 0 .035.007.03.023.049a.18.18 0 0 0 .035.096c-.01.04.008.044.027.068-.007.025.037.093.06.123.006.054.032.06.048.08.017.043.006.036.023.056-.001.026.03.094.056.125-.001.056.016.024.035.046.007.013.095.09.124.124.051.039.01.044.024.06.006.04.081.055.105.082.053.022.01.029.029.049.004.02.046.023.075.056.02-.006.03.037.062.073 0 .003.039.033.072.07a.626.626 0 0 1 .152.11c.067.012.024.012.04.03.02.008.046.021.072.052.02-.006.08.03.108.063.046-.01.015.038.037.066-.005.014.023.096.048.128-.012.052.042.07.059.09.02.041.011.016.023.031.008.012.064.03.084.054.04-.002.009.053.024.074-.008.031.056.042.071.061.035.015.012.039.02.05.004.029.026.046.036.059.012.026.005.024.012.033 0 .02.037.029.047.04.022.009.02.015.024.02.014.01.019.01.023.016.012.005.013.014.016.018.013.017-.002.01-.002.01l.002.008.055-.074.022-.047.051-.028.063-.034.037-.084.072-.066.048-.036.039-.063.03-.059.055-.066.05-.043.056-.036.052-.062.019-.04.082-.066.027-.02.084-.073.024-.02.043-.038.035-.066.074-.103.036-.018.037-.034.09-.048.027-.066.061-.077.043-.046.053-.05.046-.054.02-.043.048-.082.043-.062.025-.044.064-.081.044-.052.069-.035.035-.016.064-.082.028-.033.06-.017.096-.038.028.049.09.05.026.021.056.03.061.091.057.037.042.054.055.047.041.016.037.068.076.035.063.033.046.06.054.045.041.018.037.072.03.04.078.084.032.012.082.064.02.033.056.067.041-.001-.03.068-.028.04-.054.038-.05.098-.022.05-.076.077-.042.023-.04.027-.043.09-.03.032-.095.071-.02.022-.031.061-.085.086-.02.018-.078.04-.035.07-.03.032-.08.092-.017.036-.037.033-.047.042-.078.04-.033.053-.047.044-.103.06-.02.045-.075.08-.042.037-.03.058-.042.068-.058.047-.041.054-.022.045-.066.08-.051.029-.025.035-.036.064-.042.045-.046.068-.11.042-.038.016-.04.035-.036.068.065.04.025.069.037.077.043.027.057.036.072.096.03.019.032.08.027.067.029.07.06.036.025.064.027.068.04.087.029.063.056.074.019.03.035.08.053.03.089.055.05.057.052.033.048.067.044.024.067.077.043.042.05.056.05.031.025.04.079.044.024.055.057.039.093.069.036.062.031.025.081.058.024.036.028.092.046.032.031.09.063.072.046.03.063.054.024.03.069.054.03.108-.024.054-.038.043-.098.087-.035.018-.04.077-.06.051-.03.054-.028.06-.03.062-.036.04-.058.037-.041.055-.105.087-.014.023-.075.08-.037.043-.024.033-.071.09-.023.039-.043.065-.047.063-.086.018-.052.016-.074.033-.024.045-.03-.068-.047-.075-.05-.027-.024-.048-.08-.086-.038-.04-.02-.048-.075-.07-.043-.023-.046-.028-.04-.042-.044-.098-.068-.042-.054-.06-.027-.02-.085-.055-.05-.027-.064-.036-.024-.06-.075-.042-.064-.037-.045-.084-.033-.057-.037-.025-.036-.044-.088-.096-.035-.036-.035-.063-.018-.042-.036-.083-.055-.029-.049-.085-.024-.052-.026-.06-.032-.043-.07-.036-.082-.087-.024-.041-.054-.027-.07-.075-.018-.041-.066-.033-.03-.038-.045-.045-.069-.043-.048-.048-.026-.064-.044-.11-.036.031-.103.06-.055.036-.056.052-.046.02-.082.053-.022.03-.078.085-.03.015-.077.034-.03.047-.04.079-.086.057-.053.036-.058.028-.048.07-.048.057-.04.056-.06.048-.05.023-.053.074-.031.022-.045.039-.054.042-.098.098-.018.034-.06.026-.048.082-.055.024-.066.029-.052.031-.077.099-.016.028-.033.064-.04.075-.086.052-.05.043-.043.054-.045.018-.06.028-.087.09-.027.041-.057.022-.068.082-.03.058-.037-.03-.095-.06-.047-.024-.074-.064-.02-.045-.031-.069-.03-.065-.037-.07-.068-.057-.03-.018-.088-.057-.03-.054-.03-.028-.045-.04-.078-.04-.075-.09-.018-.04-.027-.055-.042-.078-.072-.032-.051-.024-.073-.078-.043-.024-.065-.059-.048-.038-.054-.052-.034-.068.04-.026.043-.049.11-.048.05-.052.031-.048.067-.064.048-.017.077-.057.026-.018.048-.032.063-.092.063-.056.027-.042.081-.057.05-.022.06-.02.034-.048.052-.078.08-.047.054-.039.033-.048.07-.06.031-.044.073-.057.04-.012.037-.045.102-.07.033-.037.064-.02.057-.065.045-.014.046-.068.088-.044.055-.036.032-.046.052-.019.062-.025.045-.062.085-.084.051-.016.058-.06.03-.034.069-.073.035-.022.099-.016.043-.017.053-.031.05-.05-.037-.08-.015-.054-.055-.078-.03-.023-.058-.09-.039-.042-.019-.034-.063-.046-.059-.097-.013-.044-.026-.038-.079-.095-.014-.023-.075-.075-.038-.054-.043-.058-.012-.045-.024-.048-.068-.05-.027-.053-.029-.101-.02-.068-.039-.083-.035-.06-.017-.051-.053-.082-.034-.052-.052-.046-.024-.061-.027-.068-.028-.035-.048-.042-.054-.11-.045-.053-.022-.053-.062-.035-.044-.03-.082-.06-.054-.055-.015-.054-.019-.054-.075-.09-.028-.019-.038-.088-.023-.042-.073-.027" transform="translate(0 -288.533)"/>
    </g>
</svg>
