<svg xmlns="http://www.w3.org/2000/svg" xmlns:xlink="http://www.w3.org/1999/xlink" width="32" height="32" viewBox="0 0 8.467 8.467" shape-rendering="crispEdges">
    <defs>
        <linearGradient id="c">
            <stop style="stop-color:#fff;stop-opacity:1" offset="0"/>
            <stop style="stop-color:#000;stop-opacity:1" offset="1"/>
        </linearGradient>
        <linearGradient id="b">
            <stop style="stop-color:#126195;stop-opacity:1" offset="0"/>
            <stop style="stop-color:#fff;stop-opacity:1" offset="1"/>
        </linearGradient>
        <linearGradient id="a">
            <stop style="stop-color:#ffb854;stop-opacity:1" offset="0"/>
            <stop style="stop-color:#ffd59a;stop-opacity:1" offset="1"/>
        </linearGradient>
        <linearGradient xlink:href="#b" id="e" x1="288.533" y1="-4.233" x2="297" y2="-4.233" gradientUnits="userSpaceOnUse"/>
        <linearGradient xlink:href="#c" id="f" x1=".529" y1="293.164" x2="7.938" y2="296.471" gradientUnits="userSpaceOnUse"/>
        <linearGradient xlink:href="#a" id="g" gradientUnits="userSpaceOnUse" gradientTransform="matrix(0 .64583 .64583 0 -184.892 .218)" x1="5.953" y1="293.031" x2="2.326" y2="289.767"/>
        <linearGradient id="d">
            <stop style="stop-color:#f90000;stop-opacity:1" offset="0"/>
            <stop style="stop-color:#3e0000;stop-opacity:1" offset="1"/>
        </linearGradient>
        <radialGradient xlink:href="#d" id="h" cx="5.424" cy="294.883" fx="5.424" fy="294.883" r="2.117" gradientTransform="matrix(1.1875 0 0 1.3125 -1.016 -380.684)" gradientUnits="userSpaceOnUse"/>
    </defs>
    <path style="fill:url(#e);fill-opacity:1;stroke-width:.170921;stroke-miterlimit:4;stroke-dasharray:none" transform="rotate(90 144.267 -144.267)" d="M288.533-8.467H297V0h-8.467z"/>
    <path style="fill:url(#f);fill-opacity:1;stroke-width:.170921;stroke-miterlimit:4;stroke-dasharray:none" d="M.529 293.164h7.408v3.307H.529z" transform="translate(0 -288.533)"/>
    <path style="fill:url(#g);fill-opacity:1;stroke:#945904;stroke-width:.170876;stroke-linecap:butt;stroke-linejoin:miter;stroke-miterlimit:4;stroke-dasharray:none;stroke-opacity:1" d="M4.528 2.866h.77v.171L4.1 4.233 2.905 3.037v-.17h.769c.003-1.272-.217-1.893.43-1.892.646 0 .424.641.424 1.891Z"/>
    <path style="display:inline;fill:url(#h);fill-opacity:1;stroke:none;stroke-width:.264583px;stroke-linecap:butt;stroke-linejoin:miter;stroke-opacity:1" d="m3.836 5.424 1.72 2.117L8.07 3.307l-.53.265L5.293 5.82l-.926-.397z"/>
</svg>
