<svg width="16" height="16" version="1.1" viewBox="0 0 4.233 4.233" xmlns="http://www.w3.org/2000/svg" xmlns:osb="http://www.openswatchbook.org/uri/2009/osb" xmlns:xlink="http://www.w3.org/1999/xlink">
  <defs>
    <linearGradient id="b" x2="4.233" y1="294.9" y2="294.9" gradientUnits="userSpaceOnUse">
      <stop stop-color="#008400" stop-opacity=".4245" offset="0"/>
    </linearGradient>
  </defs>
  <g transform="translate(0 -292.8)">
    <g fill-rule="evenodd">
      <circle cx="2.117" cy="294.9" r="0" fill="#fc0000" stroke="url(#b)" style="paint-order:markers fill stroke"/>
      <circle cx="2.117" cy="294.9" r="2.117" style="paint-order:markers fill stroke"/>
      <circle cx="2.117" cy="294.9" r="1.852" fill="red" style="paint-order:markers fill stroke"/>
    </g>
    <g transform="scale(.9868 1.013)" stroke-width=".2646px" aria-label="?">
      <path d="m3.09 290.1q0 0.2147-0.07668 0.3834-0.07668 0.1665-0.2016 0.2958-0.1227 0.1249-0.2826 0.2344t-0.3396 0.2125v0.493h-0.3922v-0.6682q0.1424-0.0811 0.3067-0.1775 0.1665-0.0964 0.2717-0.195 0.1271-0.1139 0.1972-0.2344 0.07011-0.1227 0.07011-0.3111 0-0.2476-0.1687-0.3681-0.1665-0.1227-0.4316-0.1227-0.2366 0-0.4492 0.0745-0.2103 0.0745-0.333 0.1512h-0.02191v-0.447q0.1534-0.0591 0.3878-0.1052 0.2366-0.0482 0.447-0.0482 0.4711 0 0.7427 0.23 0.2739 0.2279 0.2739 0.6025zm-0.8654 2.496h-0.447v-0.4623h0.447z"/>
    </g>
  </g>
</svg>
