<svg width="32" height="32" version="1.1" xmlns="http://www.w3.org/2000/svg" xmlns:xlink="http://www.w3.org/1999/xlink">
  <defs>
    <linearGradient id="a">
      <stop stop-color="#313030" offset="0"/>
      <stop stop-color="#999797" offset="1"/>
    </linearGradient>
    <linearGradient id="f" x1="9" x2="7" y1="1027" y2="1025" gradientTransform="translate(0 -1)" gradientUnits="userSpaceOnUse" xlink:href="#a"/>
    <linearGradient id="g" x1="9" x2="7" y1="1027" y2="1025" gradientTransform="translate(0 4)" gradientUnits="userSpaceOnUse" xlink:href="#a"/>
    <linearGradient id="h" x1="9" x2="7" y1="1027" y2="1025" gradientTransform="translate(0 9)" gradientUnits="userSpaceOnUse" xlink:href="#a"/>
    <linearGradient id="j" x1="9.5" x2="22.5" y1="1029" y2="1043" gradientTransform="matrix(.5859 0 0 .586 14.06 436.6)" gradientUnits="userSpaceOnUse">
      <stop stop-color="#eee051" offset="0"/>
      <stop stop-color="#c0a616" offset="1"/>
    </linearGradient>
    <linearGradient id="e" x1="9" x2="7" y1="1027" y2="1025" gradientTransform="translate(0 14)" gradientUnits="userSpaceOnUse" xlink:href="#a"/>
    <linearGradient id="i" x1="9" x2="7" y1="1027" y2="1025" gradientTransform="translate(0 19)" gradientUnits="userSpaceOnUse" xlink:href="#a"/>
    <linearGradient id="d" x1="27" x2="4" y1="1050" y2="1021" gradientUnits="userSpaceOnUse">
      <stop stop-color="#313030" offset="0"/>
      <stop stop-color="#313030" offset=".5"/>
      <stop stop-color="#999797" offset="1"/>
    </linearGradient>
  </defs>
  <g>
    <path transform="translate(0 -1020)" d="m4.5 1022h22v28h-22z" fill="#fff" stroke="url(#d)"/>
    <path transform="translate(0 -1020)" d="m7 1039h2v2h-2z" fill="url(#e)"/>
    <path transform="translate(0 -1020)" d="m7 1024h2v2h-2z" fill="url(#f)"/>
    <path transform="translate(0 -1020)" d="m11 1025h13v1h-13z" fill="#3a3939"/>
    <path transform="translate(0 -1020)" d="m7 1029h2v2h-2z" fill="url(#g)"/>
    <path transform="translate(0 -1020)" d="m11 1030h13v1h-13z" fill="#3a3939"/>
    <path transform="translate(0 -1020)" d="m7 1034h2v2h-2z" fill="url(#h)"/>
    <path transform="translate(0 -1020)" d="m11 1035h13v1h-13z" fill="#3a3939"/>
    <path transform="translate(0 -1020)" d="m7 1044h2v2h-2z" fill="url(#i)"/>
    <path transform="translate(0 -1020)" d="m11 1040h8v1h-8zm0 5h8v1h-8z" fill="#3a3939"/>
    <path transform="translate(0 -1020)" d="M21.063 1036.063a8.169 8.192 0 0 0-1.494.626l.243 2.474a6.03 6.047 0 0 0-1.264 1.282l-2.384-.234a8.169 8.192 0 0 0-.598 1.587l1.868 1.495a6.03 6.047 0 0 0-.045.708 6.03 6.047 0 0 0 .075.921l-1.784 1.444a8.169 8.192 0 0 0 .74 1.667l2.274-.275a6.03 6.047 0 0 0 1.04 1.02l-.27 2.252a8.169 8.192 0 0 0 1.715.717l1.418-1.764a6.03 6.047 0 0 0 .823.064 6.03 6.047 0 0 0 .712-.051l1.432 1.798a8.169 8.192 0 0 0 1.673-.652l-.225-2.293a6.03 6.047 0 0 0 1.195-1.186l2.365.234a8.169 8.192 0 0 0 .685-1.586l-1.868-1.496a6.03 6.047 0 0 0 .06-.815 6.03 6.047 0 0 0-.062-.819l1.917-1.551a8.169 8.192 0 0 0-.636-1.576l-2.447.296a6.03 6.047 0 0 0-1.108-1.12l.3-2.507a8.169 8.192 0 0 0-1.516-.652l-1.575 1.957a6.03 6.047 0 0 0-.902-.075 6.03 6.047 0 0 0-.802.06zm2.37 5.082a2.805 2.813 0 0 1 .281.014 2.805 2.813 0 0 1 .278.041 2.805 2.813 0 0 1 .271.07 2.805 2.813 0 0 1 .263.096 2.805 2.813 0 0 1 .253.122 2.805 2.813 0 0 1 .24.147 2.805 2.813 0 0 1 .222.17 2.805 2.813 0 0 1 .206.192 2.805 2.813 0 0 1 .185.212 2.805 2.813 0 0 1 .162.229 2.805 2.813 0 0 1 .14.243 2.805 2.813 0 0 1 .114.256 2.805 2.813 0 0 1 .089.267 2.805 2.813 0 0 1 .061.275 2.805 2.813 0 0 1 .034.28 2.805 2.813 0 0 1 .007.198 2.805 2.813 0 0 1-.015.281 2.805 2.813 0 0 1-.041.278 2.805 2.813 0 0 1-.07.273 2.805 2.813 0 0 1-.096.263 2.805 2.813 0 0 1-.121.253 2.805 2.813 0 0 1-.147.24 2.805 2.813 0 0 1-.17.224 2.805 2.813 0 0 1-.19.205 2.805 2.813 0 0 1-.21.186 2.805 2.813 0 0 1-.23.164 2.805 2.813 0 0 1-.243.139 2.805 2.813 0 0 1-.255.115 2.805 2.813 0 0 1-.267.09 2.805 2.813 0 0 1-.274.061 2.805 2.813 0 0 1-.278.034 2.805 2.813 0 0 1-.198.01 2.805 2.813 0 0 1-.28-.014 2.805 2.813 0 0 1-.277-.04 2.805 2.813 0 0 1-.271-.07 2.805 2.813 0 0 1-.264-.097 2.805 2.813 0 0 1-.252-.122 2.805 2.813 0 0 1-.24-.147 2.805 2.813 0 0 1-.223-.17 2.805 2.813 0 0 1-.205-.191 2.805 2.813 0 0 1-.185-.212 2.805 2.813 0 0 1-.163-.229 2.805 2.813 0 0 1-.14-.244 2.805 2.813 0 0 1-.114-.256 2.805 2.813 0 0 1-.088-.267 2.805 2.813 0 0 1-.061-.274 2.805 2.813 0 0 1-.034-.28 2.805 2.813 0 0 1-.008-.198 2.805 2.813 0 0 1 .014-.281 2.805 2.813 0 0 1 .042-.278 2.805 2.813 0 0 1 .07-.273 2.805 2.813 0 0 1 .095-.264 2.805 2.813 0 0 1 .123-.252 2.805 2.813 0 0 1 .146-.24 2.805 2.813 0 0 1 .17-.224 2.805 2.813 0 0 1 .191-.205 2.805 2.813 0 0 1 .21-.186 2.805 2.813 0 0 1 .229-.164 2.805 2.813 0 0 1 .243-.14 2.805 2.813 0 0 1 .256-.115 2.805 2.813 0 0 1 .265-.089 2.805 2.813 0 0 1 .274-.062 2.805 2.813 0 0 1 .279-.034 2.805 2.813 0 0 1 .198-.01z" fill="url(#j)" stroke="#8a7e00"/>
  </g>
</svg>
