<svg width="32" height="32" shape-rendering="crispEdges" version="1.1" viewBox="0 0 8.467 8.467" xmlns="http://www.w3.org/2000/svg" xmlns:xlink="http://www.w3.org/1999/xlink">
  <defs>
    <linearGradient id="f" x1="5.953" x2="1.588" y1="293" y2="289.3" gradientTransform="translate(-.132 2.249)" gradientUnits="userSpaceOnUse">
      <stop stop-color="#ffb854" offset="0"/>
      <stop stop-color="#ffd59a" offset="1"/>
    </linearGradient>
    <linearGradient id="e" x1="7.673" x2="3.969" y1="292" y2="292" gradientTransform="matrix(1 0 0 .9231 0 22.53)" gradientUnits="userSpaceOnUse">
      <stop stop-color="#818181" offset="0"/>
      <stop stop-color="#ededed" offset="1"/>
    </linearGradient>
  </defs>
  <g transform="translate(0 -288.5)">
    <path d="m5.159 291.3h2.646v1.588h-2.646z" fill="url(#e)" stroke="#313131" stroke-width=".2646"/>
    <path transform="translate(.132)" d="M1.054 291.572v2.381c0 1.058 1.195 1.592 1.856 1.592H3.97v1.19h.264l1.852-1.852-1.852-1.852H3.97v1.19h-.53c-.529 0-1.058 0-1.058-.925V291.576c0-.53.53-.794.794-.794H4.63c.133 0 .398 0 .398-.264v-.794c-.001-.259-.265-.265-.398-.265l-1.724-.002c-.926 0-1.852 1.059-1.852 1.588v.527z" fill="url(#f)" stroke="#945904" stroke-width=".2646"/>
    <path transform="translate(.132)" d="m1.058 291.7v-0.661" fill="none" stroke="#945904" stroke-width=".2646px"/>
  </g>
</svg>
