<svg width="32" height="32" shape-rendering="crispEdges" version="1.1" viewBox="0 0 8.467 8.467" xmlns="http://www.w3.org/2000/svg" xmlns:xlink="http://www.w3.org/1999/xlink">
  <defs>
    <linearGradient id="a">
      <stop stop-color="#818181" offset="0"/>
      <stop stop-color="#ededed" offset="1"/>
    </linearGradient>
    <linearGradient id="c" x1="7.673" x2="3.969" y1="292" y2="292" gradientTransform="matrix(1 0 0 .9231 -.265 20.41)" gradientUnits="userSpaceOnUse" xlink:href="#a"/>
    <linearGradient id="d" x1="4.28" x2="1.906" y1="291.2" y2="292.5" gradientTransform="matrix(.04428 .9398 -.9978 -.0127 293.9 294.4)" gradientUnits="userSpaceOnUse">
      <stop stop-color="#ffb854" offset="0"/>
      <stop stop-color="#ffd59a" offset="1"/>
    </linearGradient>
    <linearGradient id="e" x1="7.673" x2="3.969" y1="292" y2="292" gradientTransform="matrix(1 0 0 .9231 -.265 25.44)" gradientUnits="userSpaceOnUse" xlink:href="#a"/>
  </defs>
  <g transform="translate(0 -288.5)" stroke-width=".2646">
    <path d="m4.895 289.2h2.646v1.588h-2.646z" fill="url(#c)" stroke="#313131"/>
    <path d="M5.292 291.84H2.914c-1.062 0-1.459 1.059-1.459 1.72v.926H.265v.265l1.948 1.803 1.756-1.803v-.265h-1.19v-.396c0-.53-.133-.926.854-.931l1.712.01c.211 0 .344-.402.344-.67 0-.262-.133-.655-.397-.658z" fill="url(#d)" stroke="#945904"/>
    <path d="m4.895 294.2h2.646v1.588h-2.646z" fill="url(#e)" stroke="#313131"/>
  </g>
</svg>
