<svg width="32" height="32" shape-rendering="crispEdges" version="1.1" viewBox="0 0 8.467 8.467" xmlns="http://www.w3.org/2000/svg" xmlns:xlink="http://www.w3.org/1999/xlink">
  <defs>
    <linearGradient id="d" x1="7.805" x2=".661" y1="289.9" y2="289.9" gradientTransform="matrix(1.088 0 0 1.171 -4.142 -41.92)" gradientUnits="userSpaceOnUse">
      <stop stop-color="#0349ff" offset="0"/>
      <stop stop-color="#96b3ff" offset="1"/>
    </linearGradient>
    <linearGradient id="f" x1="-4.035" x2="-5.821" y1="293" y2="291.3" gradientTransform="matrix(.9848 0 0 .9993 9.005 1.056)" gradientUnits="userSpaceOnUse">
      <stop stop-color="#ba5b06" offset="0"/>
      <stop stop-color="#faa75e" offset="1"/>
    </linearGradient>
    <linearGradient id="e" x1=".331" x2="-1.984" y1="301.3" y2="299" gradientTransform="matrix(.9848 0 0 .9993 .43 -4.68)" gradientUnits="userSpaceOnUse">
      <stop stop-color="#f19747" offset="0"/>
      <stop stop-color="#f7c395" offset="1"/>
    </linearGradient>
  </defs>
  <g transform="matrix(1 0 0 1.025 3.703 -303.8)" stroke-width=".9878">
    <path d="m-3.571 296.7h8.203v6.969h-8.203z" fill="#ededed" stroke="#1253c9" stroke-width=".2613"/>
    <path d="m1.656 303.77 1.26 1.034 1.12-1.033v-.258l-2.38.014z" fill="#2a2a2a"/>
    <rect x="-3.437" y="296.8" width="7.935" height="1.549" ry="0" fill="url(#d)"/>
  </g>
  <g stroke-width=".2533px">
    <path transform="matrix(1.037 0 0 1.052 4.229 -306.6)" d="M-1.654 294.685v-.33l.26-.265c.066-.066.066-.066.131-.066h.26c.066 0 .066 0 .131.066l.26.264c.066.066.066.066.13.066h-.064.586c.065 0 .065 0 .13.066l.912.793c.065.067.065.067.065.133v1.057c0 .066 0 .066-.065.066h-.13c-.065 0-.065 0-.065.066v.132c0 .067 0 .067-.065.067H-.221c-.065 0-.065 0-.13-.066l-.847-.86c-.065-.066-.065-.066-.065-.132v-.529c0-.066 0-.066-.065-.132l-.26-.264c-.066-.066-.066-.066-.066-.132z" fill="url(#e)" stroke="#ba5b06"/>
    <g fill="none">
      <path transform="matrix(1.037 0 0 1.052 -.126 -303.8)" d="m5.097 293.9-1.759-1.718" stroke="url(#f)"/>
      <path transform="matrix(1.037 0 0 1.052 -.126 -303.8)" d="m2.947 292.49.717-.728" stroke="#ba5b06"/>
    </g>
  </g>
  <g fill="none" stroke="#333">
    <g stroke-linecap="round">
      <path transform="translate(0 -288.5)" d="M4.685 292.105h.924c.132 0 .132 0 .264.132l.132.131" stroke-width=".2646px"/>
      <path transform="translate(0 -288.5)" d="M5.346 293.164h.528c.132 0 .132 0 .263.131l.132.132" stroke-width=".2646px"/>
      <path transform="translate(0 -288.5)" d="M4.048 291.706c0-.263.128-.395.388-.395h.774v0" stroke-width=".2646px"/>
    </g>
    <path transform="translate(0 -288.5)" d="m2.565 291.6h-0.79" stroke-linecap="square" stroke-width=".2646px"/>
    <path transform="translate(0 -288.5)" d="m2.778 290.6v0.792" stroke-linecap="square" stroke-width=".2646px"/>
    <path transform="translate(0 -288.5)" d="M4.366 294.091v.528c0 .132 0 .132.131.263l.132.132" stroke-linecap="round" stroke-width=".2646px"/>
    <path transform="translate(0 -288.5)" d="M3.307 293.43v.924c0 .132 0 .132.132.264l.132.132M2.947 292.82c-.26 0-.39.131-.39.396v.794" stroke-linecap="round" stroke-width=".2646px"/>
  </g>
</svg>
