<svg xmlns="http://www.w3.org/2000/svg" xmlns:xlink="http://www.w3.org/1999/xlink" width="32" height="32" viewBox="0 0 8.467 8.467" shape-rendering="crispEdges">
    <defs>
        <linearGradient id="d">
            <stop style="stop-color:#c82f2e;stop-opacity:1" offset="0"/>
            <stop style="stop-color:#e06b6a;stop-opacity:1" offset="1"/>
        </linearGradient>
        <linearGradient id="c">
            <stop style="stop-color:#a6b4cc;stop-opacity:1" offset="0"/>
            <stop style="stop-color:#f2f6fb;stop-opacity:1" offset="1"/>
        </linearGradient>
        <linearGradient id="b">
            <stop style="stop-color:#bbb;stop-opacity:1" offset="0"/>
            <stop style="stop-color:#fff;stop-opacity:1" offset="1"/>
        </linearGradient>
        <linearGradient id="a">
            <stop style="stop-color:#57667d;stop-opacity:1" offset="0"/>
            <stop style="stop-color:#a6b4cc;stop-opacity:1" offset="1"/>
        </linearGradient>
        <linearGradient xlink:href="#a" id="f" x1="7.673" y1="296.206" x2=".794" y2="289.724" gradientUnits="userSpaceOnUse" gradientTransform="matrix(1 0 0 1.01887 -.132 -5.461)"/>
        <linearGradient xlink:href="#b" id="g" x1="5.424" y1="291.311" x2="2.778" y2="289.724" gradientUnits="userSpaceOnUse" gradientTransform="matrix(1.07692 0 0 1.06666 -.458 -19.296)"/>
        <linearGradient xlink:href="#c" id="h" x1="6.482" y1="296.074" x2="1.984" y2="293.56" gradientUnits="userSpaceOnUse" gradientTransform="matrix(1.05263 0 0 1 -.355 .132)"/>
        <linearGradient xlink:href="#d" id="i" x1="5.689" y1="294.09" x2="2.646" y2="294.09" gradientUnits="userSpaceOnUse" gradientTransform="matrix(.95652 0 0 1.3333 .115 -98.106)"/>
        <linearGradient xlink:href="#d" id="j" x1="5.689" y1="294.09" x2="2.646" y2="294.09" gradientUnits="userSpaceOnUse" gradientTransform="matrix(.95652 0 0 1.3333 .115 -97.312)"/>
        <linearGradient xlink:href="#d" id="k" x1="5.689" y1="294.09" x2="2.646" y2="294.09" gradientUnits="userSpaceOnUse" gradientTransform="matrix(.95652 0 0 1.3333 .115 -96.518)"/>
        <linearGradient xlink:href="#e" id="l" x1="10" y1="1038.362" x2="24" y2="1026.362" gradientUnits="userSpaceOnUse"/>
        <linearGradient id="e">
            <stop style="stop-color:#fff479;stop-opacity:1" offset="0"/>
            <stop style="stop-color:#ecda41;stop-opacity:1" offset="1"/>
        </linearGradient>
    </defs>
    <path style="fill:url(#f);fill-opacity:1;stroke:#284267;stroke-width:.26458338px;stroke-linecap:butt;stroke-linejoin:miter;stroke-opacity:1" d="M4.233 289.46h2.25l1.322 1.347v5.392c0 .26-.132.404-.397.404H.794c-.265 0-.397-.135-.397-.404v-6.335c0-.27.132-.405.397-.405z" transform="translate(0 -288.533)"/>
    <path style="fill:url(#g);fill-opacity:1;stroke:#284267;stroke-width:.26458332px;stroke-linecap:butt;stroke-linejoin:miter;stroke-opacity:1" d="M2.249 289.46v1.693c0 .282.142.423.427.423h2.85c.285 0 .427-.141.427-.423v-1.694z" transform="translate(0 -288.533)"/>
    <path style="fill:url(#h);fill-opacity:1;stroke:#284267;stroke-width:.26458335px;stroke-linecap:butt;stroke-linejoin:miter;stroke-opacity:1" d="M1.455 296.603v-2.778c0-.265.14-.397.418-.397h4.456c.279 0 .418.132.418.397v2.778z" transform="translate(0 -288.533)"/>
    <path style="fill:url(#i);fill-opacity:1;stroke:none;stroke-width:.26458335;stroke-miterlimit:4;stroke-dasharray:none;stroke-opacity:1" d="M2.646 293.825h2.91v.529h-2.91z" transform="translate(0 -288.533)"/>
    <path style="fill:url(#j);fill-opacity:1;stroke:none;stroke-width:.26458335;stroke-miterlimit:4;stroke-dasharray:none;stroke-opacity:1" d="M2.646 294.619h2.91v.529h-2.91z" transform="translate(0 -288.533)"/>
    <path style="fill:url(#k);fill-opacity:1;stroke:none;stroke-width:.26458335;stroke-miterlimit:4;stroke-dasharray:none;stroke-opacity:1" d="M2.646 295.412h2.91v.529h-2.91z" transform="translate(0 -288.533)"/>
    <path d="M8 1038.362v6l5.562-2.206.138-.216z" style="display:inline;fill:#2b2b31;fill-opacity:1;stroke:none;stroke-width:1;stroke-linecap:butt;stroke-linejoin:miter;stroke-miterlimit:4;stroke-dasharray:none;stroke-opacity:1" transform="matrix(.26458 0 0 .26458 1.836 -270.18)"/>
    <path d="m8.5 1038.362 5 3 10.5-16.5-5-3z" style="display:inline;fill:url(#l);fill-opacity:1;stroke:#655a05;stroke-width:1px;stroke-linecap:butt;stroke-linejoin:miter;stroke-opacity:1" transform="matrix(.26458 0 0 .26458 1.836 -270.18)"/>
</svg>
