<svg width="32" height="32" version="1.1" xmlns="http://www.w3.org/2000/svg" xmlns:xlink="http://www.w3.org/1999/xlink">
  <defs>
    <linearGradient id="e" x1="21" x2="8" y1="1041" y2="1023" gradientTransform="translate(-1)" gradientUnits="userSpaceOnUse">
      <stop stop-color="#9bc3d4" offset="0"/>
      <stop stop-color="#f1f9fa" offset="1"/>
    </linearGradient>
    <linearGradient id="d" x1="26.44" x2="22.38" y1="1042" y2="1047" gradientTransform="matrix(.9862 0 0 1.056 -.073 -57.77)" gradientUnits="userSpaceOnUse">
      <stop stop-color="#b69526" offset="0"/>
      <stop stop-color="#dfc25a" offset="1"/>
    </linearGradient>
    <linearGradient id="f" x1="2.612" x2="6.856" y1="292.9" y2="290.7" gradientTransform="translate(1.72 2.249)" gradientUnits="userSpaceOnUse">
      <stop stop-color="#3bb234" offset="0"/>
      <stop stop-color="#95e891" offset="1"/>
    </linearGradient>
  </defs>
  <g transform="translate(0 -1020)">
    <path d="M24.5 1050.362c1.5 1 3.213.685 4.07-.124.93-.876 1.43-1.376 1.93-2.18.65-1.046 1-2.196 0-3.696-2-2-8.383-8.284-8.383-8.284l-5.424 6.336s5.807 5.948 7.807 7.948z" fill="url(#d)" stroke="#644e00" stroke-width="1px"/>
    <circle cx="12.5" cy="1033" r="12" fill="url(#e)" stroke="#417e9a"/>
    <g shape-rendering="crispEdges" stroke-width=".8633">
      <path transform="matrix(-4.232 0 0 4.528 38.46 -294.1)" d="M5.694 295.69v1.11h.4l1.886-1.797-1.886-1.95h-.4v1.092H3.808c-.4 0-.513.282-.513.532v.624c0 .17.15.39.513.39z" fill="url(#f)" stroke="#075503" stroke-width=".2284"/>
    </g>
  </g>
</svg>
