<svg width="32" height="32" version="1.1" xmlns="http://www.w3.org/2000/svg" xmlns:xlink="http://www.w3.org/1999/xlink">
  <defs>
    <linearGradient id="d" x1="21" x2="8" y1="1041" y2="1023" gradientTransform="translate(-1)" gradientUnits="userSpaceOnUse">
      <stop stop-color="#9bc3d4" offset="0"/>
      <stop stop-color="#f1f9fa" offset="1"/>
    </linearGradient>
    <linearGradient id="c" x1="26.44" x2="22.38" y1="1042" y2="1047" gradientTransform="matrix(.9862 0 0 1.056 -.073 -57.77)" gradientUnits="userSpaceOnUse">
      <stop stop-color="#b69526" offset="0"/>
      <stop stop-color="#dfc25a" offset="1"/>
    </linearGradient>
  </defs>
  <g transform="translate(0 -1020)">
    <path d="M24.5 1050.362c1.5 1 3.213.685 4.07-.124.93-.876 1.43-1.376 1.93-2.18.65-1.046 1-2.196 0-3.696-2-2-8.383-8.284-8.383-8.284l-5.424 6.336s5.807 5.948 7.807 7.948z" fill="url(#c)" stroke="#644e00" stroke-width="1px"/>
    <circle cx="12.5" cy="1033" r="12" fill="url(#d)" stroke="#417e9a"/>
    <g fill="#fff" stroke="#000" stroke-linecap="round" stroke-width="1.071">
      <rect transform="matrix(1.4 0 0 1.4 25.95 1024)" x="-18" y="17" width="2.5" height="2.5" ry="0"/>
      <rect transform="matrix(1.4 0 0 1.4 33.95 1024)" x="-18" y="17" width="2.5" height="2.5" ry="0"/>
      <rect transform="matrix(1.4 0 0 1.4 41.95 1024)" x="-18" y="17" width="2.5" height="2.5" ry="0"/>
    </g>
  </g>
</svg>
