<svg width="32" height="32" version="1.1" xmlns="http://www.w3.org/2000/svg" xmlns:xlink="http://www.w3.org/1999/xlink">
  <defs>
    <linearGradient id="c" x1="241.3" x2="-17.08" y1="141.5" y2="224.6" gradientUnits="userSpaceOnUse">
      <stop stop-color="#97b2fb" offset="0"/>
      <stop stop-color="#0000a2" offset="1"/>
    </linearGradient>
  </defs>
  <g transform="translate(0 -1020)">
    <path transform="translate(0 1021)" d="M23 24c2-1 2.044-1.46 2.812-2.272C26.5 21 27 19.5 28 19.5c2.427.39 3.231 2.214 3 3.5-.231 1.286-.897 2.832-2.686 4.174-2 1.5-3.314 1.872-4.579 1.864L17 29c-2-.011-9.5 0-11.418-.387C3.39 28.171 4.5 24.5 4.5 24.5S21 25 23 24Z" fill="#cdcdcd" stroke="#000" stroke-width="1px"/>
    <path transform="translate(0 1021)" d="M4.5 24.5s.39-12.776.39-14.276c1.5 0 3.106-1.196 4.145-1.737C9.742 8.118 12.5 6 13.5 5M13.404 4.563C13.504 4.684 14.5 8.5 15 10c1.295 3.45 3.782 6.365 7 7.5 1.5.5 5.5 2 5.5 2" fill="none" stroke="#000" stroke-width="1px"/>
    <g stroke-linecap="round">
      <path transform="translate(4.925 1027) scale(.05419)" d="m45.59 326.9c-23.6-0.499-33-0.251-42.23-0.251 0-9.227-0.35-22.32 0.673-48.17 1.025-25.85 2.775-72.88 3.888-104.5 1.037-29.26 1.05-65.86 2.257-95.11 25.68-4.91 47.24-12.21 65.01-20.41 38.67-20.97 50.31-36.2 78.28-64.68l11.43 38.72c11.26 38.14 14.88 47.57 24.65 67.14 13.65 27.33 30.06 49.98 50.57 69.83 25 25.42 57.18 40.42 84.88 50.33 24.52 8.733 47.95 17.4 72.3 26.38-8.4 24.49-26.85 42.94-40.94 54.63-6.907 5.656-24.66 15.85-30.86 17.71-10.58 3.185-34 5.693-70 7.495-28.21 1.412-158.8 1.958-209.9 0.877z" fill="url(#c)" stroke="url(#linearGradient897)" stroke-width="18.45"/>
      <path transform="matrix(.03832 0 0 .03832 4.743 1024)" d="m19.76 92.66c7.472-13.85 38.32-41.62 68.1-60.84 29.78-19.22 69.99-27.18 92.68-28.07 22.69-0.893 39.28 12.92 42.27 18.71-2.992 7.26-11.92 15.8-21 26.41-7.734 9.037-26.33 29.22-45.83 44.1-35 22.54-56.94 40.85-106.6 57.78-13.28 4.432-40.78 4.343-45.53 5.064 0.619-27.56 8.46-49.3 15.93-63.15z" fill="#1d1d71" stroke="#000" stroke-width="26.1"/>
      <path transform="translate(0 1021)" d="M10.5 8s1 3.5 1.823 5.442C13.06 15.18 14.5 17 16.53 19.088c1.972 2.028 6.594 4.224 6.782 4.313" fill="none" stroke="#1d1d71" stroke-width="1px"/>
      <path transform="translate(0 1021)" d="M11.922 11.625S15.707 8.47 15 9M13 14.5s3.596-3.034 3.22-2.636M15 17l3-2.5M17 19.5l3.158-3.326M20 21.5l3.5-4" fill="none" stroke="#1d1d71" stroke-width="1px"/>
    </g>
  </g>
</svg>
