<svg width="32" height="32" version="1.1" xmlns="http://www.w3.org/2000/svg" xmlns:osb="http://www.openswatchbook.org/uri/2009/osb" xmlns:xlink="http://www.w3.org/1999/xlink">
  <defs>
    <radialGradient id="i" cx="18.03" cy="16.03" r="14.29" gradientTransform="matrix(.8792 .1582 -.1401 .7788 4.425 -.388)" gradientUnits="userSpaceOnUse">
      <stop stop-color="#fff" offset="0"/>
      <stop stop-color="#f1f1f1" offset=".467"/>
      <stop stop-color="#c7c7c7" offset="1"/>
    </radialGradient>
    <radialGradient id="j" cx="15.16" cy="40.26" r="6.485" gradientTransform="matrix(.7988 .01144 -.05034 2.958 5.453 -78.9)" gradientUnits="userSpaceOnUse">
      <stop stop-color="#9798c7" offset="0"/>
      <stop stop-color="#344bd0" stop-opacity=".9841" offset="1"/>
    </radialGradient>
  </defs>
  <g>
    <path transform="matrix(.7277 0 0 .7302 -.059 -1.464)" d="M16.832 37.686s-.037-.96-.244-1.995c-.207-1.036-.505-2.58-1.002-3.642-.374-.8-1.518-3.205-2.95-4.834-1.066-1.214-1.912-2.2-3.287-4.264-1.023-1.533-1.684-3.43-1.71-6.163-.015-1.441.26-3.31 1.024-5.335.843-2.237 2.18-3.502 3.425-4.747 1.001-1.001 2.655-2.002 4.657-2.935 1.373-.639 4.04-1.14 5.905-1.07 1.864.069 4.437.46 6.042 1.277 1.83.933 3.667 1.73 5.048 3.318 1.38 1.588 2.01 2.503 2.487 4.264.484 1.788.904 4.503.417 7.382-.415 2.46-1.923 4.65-3.189 6.236-1.476 1.849-2.07 2.693-3.244 4.42a12.47 12.47 0 0 0-2.001 4.989c-.157.922-.265 1.633-.26 3.099-4.15-.006-7.273.047-11.118 0z" fill="url(#i)" stroke="#344bd0" stroke-width="1.372px"/>
    <path transform="matrix(.7277 0 0 .7302 -.059 -1.464)" d="m19.47 43.03h6.012l-0.158 2.12h-5.583z" fill="#b5b5b5" stroke="#7c7c7c" stroke-width="1.372"/>
    <path transform="matrix(.6812 0 0 .745 4.617 -1.888)" d="m11.24 37.59h11.93l-0.467 5.29h-11.17z" fill="url(#j)" stroke="#344bd0" stroke-width="1.404"/>
  </g>
  <g fill="none" stroke="#f0f0f0">
    <path transform="matrix(.5745 0 0 .5764 4.423 2.56)" d="M18.65 28.847c-.007-1.342-2.224-2.106-2.356-4.278-.138-2.285 1.367-3.976 3.807-3.976 2.441 0 4.165 1.877 3.851 4.173-.262 1.923-2.428 2.996-2.423 4.063" stroke-width="1.216"/>
    <path transform="matrix(.7277 0 0 .8069 -.059 -4.335)" d="m23.155 29.14.307 7.77" stroke-width=".9135"/>
    <path transform="matrix(.7277 0 0 .8101 -1.694 -4.424)" d="m23.13 29.15-0.211 7.727" stroke-width=".9117"/>
  </g>
</svg>
