<svg width="32" height="32" version="1.1" xmlns="http://www.w3.org/2000/svg" xmlns:xlink="http://www.w3.org/1999/xlink">
  <defs>
    <linearGradient id="e" x1="21" x2="8" y1="1041" y2="1023" gradientTransform="translate(-1)" gradientUnits="userSpaceOnUse">
      <stop stop-color="#9bc3d4" offset="0"/>
      <stop stop-color="#f1f9fa" offset="1"/>
    </linearGradient>
    <linearGradient id="d" x1="26.44" x2="22.38" y1="1042" y2="1047" gradientTransform="matrix(.9862 0 0 1.056 -.073 -57.77)" gradientUnits="userSpaceOnUse">
      <stop stop-color="#b69526" offset="0"/>
      <stop stop-color="#dfc25a" offset="1"/>
    </linearGradient>
    <linearGradient id="f" x1="29" x2="7" y1="1035" y2="1008" gradientTransform="matrix(.4815 0 0 .4815 3.232 549.8)" gradientUnits="userSpaceOnUse">
      <stop stop-color="#ef7878" offset="0"/>
      <stop stop-color="#f8bebd" offset="1"/>
    </linearGradient>
  </defs>
  <g transform="translate(0 -1020)">
    <path d="M24.5 1050.362c1.5 1 3.213.685 4.07-.124.93-.876 1.43-1.376 1.93-2.18.65-1.046 1-2.196 0-3.696-2-2-8.383-8.284-8.383-8.284l-5.424 6.336s5.807 5.948 7.807 7.948z" fill="url(#d)" stroke="#644e00" stroke-width="1px"/>
    <circle cx="12.5" cy="1033" r="12" fill="url(#e)" stroke="#417e9a"/>
    <g fill="#fff" stroke="#000" stroke-linecap="round" stroke-width="1.071">
      <rect transform="matrix(1.4 0 0 1.4 25.95 1024)" x="-18" y="17" width="2.5" height="2.5" ry="0"/>
      <rect transform="matrix(1.4 0 0 1.4 33.95 1024)" x="-18" y="17" width="2.5" height="2.5" ry="0"/>
      <rect transform="matrix(1.4 0 0 1.4 41.95 1024)" x="-18" y="17" width="2.5" height="2.5" ry="0"/>
    </g>
    <g transform="scale(1.009 .9914)" fill="url(#f)" stroke="#8c1b1b" aria-label="R">
      <path d="m11.59 1041q1.138 0 1.627-0.4233 0.4985-0.4232 0.4985-1.392 0-0.9592-0.4985-1.373-0.489-0.4138-1.627-0.4138h-1.524v3.602zm-1.524 2.502v5.314h-3.621v-14.04h5.53q2.774 0 4.063 0.9311 1.298 0.931 1.298 2.944 0 1.392-0.6771 2.285-0.6677 0.8935-2.022 1.317 0.743 0.1693 1.326 0.7712 0.5925 0.5925 1.194 1.806l1.966 3.988h-3.856l-1.712-3.489q-0.5173-1.053-1.053-1.439-0.5267-0.3856-1.411-0.3856z" fill="url(#f)" stroke="#8c1b1b"/>
    </g>
  </g>
</svg>
