<svg xmlns="http://www.w3.org/2000/svg" xmlns:xlink="http://www.w3.org/1999/xlink" width="32" height="32">
    <defs>
        <linearGradient id="b">
            <stop style="stop-color:#b69526;stop-opacity:1" offset="0"/>
            <stop style="stop-color:#dfc25a;stop-opacity:1" offset="1"/>
        </linearGradient>
        <linearGradient id="a">
            <stop style="stop-color:#9bc3d4;stop-opacity:1" offset="0"/>
            <stop style="stop-color:#f1f9fa;stop-opacity:1" offset="1"/>
        </linearGradient>
        <linearGradient xlink:href="#a" id="e" x1="21" y1="1041.362" x2="8" y2="1023.362" gradientUnits="userSpaceOnUse" gradientTransform="translate(-1)"/>
        <linearGradient xlink:href="#b" id="d" gradientUnits="userSpaceOnUse" x1="26.437" y1="1042.286" x2="22.381" y2="1046.548" gradientTransform="matrix(.98624 0 0 1.05598 -.073 -57.767)"/>
        <linearGradient xlink:href="#c" id="f" x1="29" y1="1035.362" x2="7" y2="1008.362" gradientUnits="userSpaceOnUse" gradientTransform="matrix(.48152 0 0 .48152 3.232 549.798)"/>
        <linearGradient id="c">
            <stop style="stop-color:#ef7878;stop-opacity:1" offset="0"/>
            <stop style="stop-color:#f8bebd;stop-opacity:1" offset="1"/>
        </linearGradient>
    </defs>
    <g transform="translate(0 -1020.362)" style="display:inline">
        <path style="fill:url(#d);fill-opacity:1;stroke:#644e00;stroke-width:.99999988px;stroke-linecap:butt;stroke-linejoin:miter;stroke-opacity:1" d="M24.5 1050.362c1.5 1 3.213.685 4.07-.124.93-.876 1.43-1.376 1.93-2.18.65-1.046 1-2.196 0-3.696-2-2-8.383-8.284-8.383-8.284l-5.424 6.336s5.807 5.948 7.807 7.948z"/>
        <circle style="fill:url(#e);fill-opacity:1;stroke:#417e9a;stroke-width:1;stroke-miterlimit:4;stroke-dasharray:none;stroke-opacity:1" cx="12.5" cy="1032.862" r="12"/>
        <rect style="display:inline;fill:#fff;fill-opacity:1;stroke:#000;stroke-width:1.07142878;stroke-linecap:round;stroke-linejoin:miter;stroke-miterlimit:4;stroke-dasharray:none;stroke-opacity:1" width="2.5" height="2.5" x="-18" y="17" transform="matrix(1.4 0 0 1.4 25.95 1024.312)" ry="0"/>
        <rect style="display:inline;fill:#fff;fill-opacity:1;stroke:#000;stroke-width:1.07142878;stroke-linecap:round;stroke-linejoin:miter;stroke-miterlimit:4;stroke-dasharray:none;stroke-opacity:1" width="2.5" height="2.5" x="-18" y="17" transform="matrix(1.4 0 0 1.4 33.95 1024.312)" ry="0"/>
        <rect style="display:inline;fill:#fff;fill-opacity:1;stroke:#000;stroke-width:1.07142878;stroke-linecap:round;stroke-linejoin:miter;stroke-miterlimit:4;stroke-dasharray:none;stroke-opacity:1" width="2.5" height="2.5" x="-18" y="17" transform="matrix(1.4 0 0 1.4 41.95 1024.312)" ry="0"/>
        <text xml:space="preserve" style="font-style:normal;font-variant:normal;font-weight:700;font-stretch:normal;font-size:19.26098251px;line-height:1.25;font-family:sans-serif;-inkscape-font-specification:'sans-serif Bold';letter-spacing:0;word-spacing:0;display:inline;fill:url(#f);fill-opacity:1;stroke:#8c1b1b;stroke-width:.99999994;stroke-miterlimit:4;stroke-dasharray:none;stroke-opacity:1" x="4.676" y="1048.832" transform="matrix(1.00863 0 0 .99145 0 0)"><tspan x="4.676" y="1048.832" style="font-style:normal;font-variant:normal;font-weight:700;font-stretch:normal;font-family:sans-serif;-inkscape-font-specification:'sans-serif Bold';fill:url(#f);fill-opacity:1;stroke:#8c1b1b;stroke-width:.99999994;stroke-miterlimit:4;stroke-dasharray:none;stroke-opacity:1">R</tspan></text>
    </g>
</svg>
