<?xml version="1.0" encoding="UTF-8" standalone="no"?>
<svg
   xmlns:dc="http://purl.org/dc/elements/1.1/"
   xmlns:cc="http://creativecommons.org/ns#"
   xmlns:rdf="http://www.w3.org/1999/02/22-rdf-syntax-ns#"
   xmlns:svg="http://www.w3.org/2000/svg"
   xmlns="http://www.w3.org/2000/svg"
   xmlns:xlink="http://www.w3.org/1999/xlink"
   xmlns:sodipodi="http://sodipodi.sourceforge.net/DTD/sodipodi-0.dtd"
   xmlns:inkscape="http://www.inkscape.org/namespaces/inkscape"
   width="32"
   height="32"
   version="1.1"
   id="svg38"
   sodipodi:docname="searchreplacef.svg"
   inkscape:version="1.0.2-2 (e86c870879, 2021-01-15)">
  <metadata
     id="metadata42">
    <rdf:RDF>
      <cc:Work
         rdf:about="">
        <dc:format>image/svg+xml</dc:format>
        <dc:type
           rdf:resource="http://purl.org/dc/dcmitype/StillImage" />
      </cc:Work>
    </rdf:RDF>
  </metadata>
  <sodipodi:namedview
     pagecolor="#ffffff"
     bordercolor="#666666"
     borderopacity="1"
     objecttolerance="10"
     gridtolerance="10"
     guidetolerance="10"
     inkscape:pageopacity="0"
     inkscape:pageshadow="2"
     inkscape:window-width="1920"
     inkscape:window-height="1018"
     id="namedview40"
     showgrid="false"
     inkscape:zoom="26.5625"
     inkscape:cx="16"
     inkscape:cy="16"
     inkscape:window-x="-8"
     inkscape:window-y="-8"
     inkscape:window-maximized="1"
     inkscape:current-layer="g36" />
  <defs
     id="defs20">
    <linearGradient
       id="b">
      <stop
         style="stop-color:#b69526;stop-opacity:1"
         offset="0"
         id="stop2" />
      <stop
         style="stop-color:#dfc25a;stop-opacity:1"
         offset="1"
         id="stop4" />
    </linearGradient>
    <linearGradient
       id="a">
      <stop
         style="stop-color:#9bc3d4;stop-opacity:1"
         offset="0"
         id="stop7" />
      <stop
         style="stop-color:#f1f9fa;stop-opacity:1"
         offset="1"
         id="stop9" />
    </linearGradient>
    <linearGradient
       xlink:href="#a"
       id="e"
       x1="21"
       y1="1041.362"
       x2="8"
       y2="1023.362"
       gradientUnits="userSpaceOnUse"
       gradientTransform="translate(-1)" />
    <linearGradient
       xlink:href="#b"
       id="d"
       gradientUnits="userSpaceOnUse"
       x1="26.437"
       y1="1042.286"
       x2="22.381"
       y2="1046.548"
       gradientTransform="matrix(.98624 0 0 1.05598 -.073 -57.767)" />
    <linearGradient
       xlink:href="#c"
       id="f"
       x1="29"
       y1="1035.362"
       x2="7"
       y2="1008.362"
       gradientUnits="userSpaceOnUse"
       gradientTransform="matrix(.48152 0 0 .48152 3.232 549.798)" />
    <linearGradient
       id="c">
      <stop
         style="stop-color:#ef7878;stop-opacity:1"
         offset="0"
         id="stop15" />
      <stop
         style="stop-color:#f8bebd;stop-opacity:1"
         offset="1"
         id="stop17" />
    </linearGradient>
  </defs>
  <g
     transform="translate(0 -1020.362)"
     style="display:inline"
     id="g36">
    <path
       style="fill:url(#d);fill-opacity:1;stroke:#644e00;stroke-width:.99999988px;stroke-linecap:butt;stroke-linejoin:miter;stroke-opacity:1"
       d="M24.5 1050.362c1.5 1 3.213.685 4.07-.124.93-.876 1.43-1.376 1.93-2.18.65-1.046 1-2.196 0-3.696-2-2-8.383-8.284-8.383-8.284l-5.424 6.336s5.807 5.948 7.807 7.948z"
       id="path22" />
    <circle
       style="fill:url(#e);fill-opacity:1;stroke:#417e9a;stroke-width:1;stroke-miterlimit:4;stroke-dasharray:none;stroke-opacity:1"
       cx="12.5"
       cy="1032.862"
       r="12"
       id="circle24" />
    <rect
       style="display:inline;fill:#fff;fill-opacity:1;stroke:#000;stroke-width:1.07142878;stroke-linecap:round;stroke-linejoin:miter;stroke-miterlimit:4;stroke-dasharray:none;stroke-opacity:1"
       width="2.5"
       height="2.5"
       x="-18"
       y="17"
       transform="matrix(1.4 0 0 1.4 25.95 1024.312)"
       ry="0"
       id="rect26" />
    <rect
       style="display:inline;fill:#fff;fill-opacity:1;stroke:#000;stroke-width:1.07142878;stroke-linecap:round;stroke-linejoin:miter;stroke-miterlimit:4;stroke-dasharray:none;stroke-opacity:1"
       width="2.5"
       height="2.5"
       x="-18"
       y="17"
       transform="matrix(1.4 0 0 1.4 33.95 1024.312)"
       ry="0"
       id="rect28" />
    <rect
       style="display:inline;fill:#fff;fill-opacity:1;stroke:#000;stroke-width:1.07142878;stroke-linecap:round;stroke-linejoin:miter;stroke-miterlimit:4;stroke-dasharray:none;stroke-opacity:1"
       width="2.5"
       height="2.5"
       x="-18"
       y="17"
       transform="matrix(1.4 0 0 1.4 41.95 1024.312)"
       ry="0"
       id="rect30" />
    <g
       aria-label="R"
       transform="matrix(1.00863 0 0 .99145 0 0)"
       id="text34"
       style="font-style:normal;font-variant:normal;font-weight:700;font-stretch:normal;font-size:19.261px;line-height:1.25;font-family:sans-serif;-inkscape-font-specification:'sans-serif Bold';letter-spacing:0;word-spacing:0;display:inline;fill:url(#f);fill-opacity:1;stroke:#8c1b1b;stroke-width:1;stroke-miterlimit:4;stroke-dasharray:none;stroke-opacity:1">
      <path
         d="m 11.588511,1041.0167 q 1.137978,0 1.627026,-0.4233 0.498453,-0.4232 0.498453,-1.3919 0,-0.9592 -0.498453,-1.3731 -0.489048,-0.4138 -1.627026,-0.4138 h -1.523574 v 3.6021 z m -1.523574,2.5016 v 5.3137 H 6.4440981 v -14.0413 h 5.5300089 q 2.774409,0 4.062863,0.9311 1.297859,0.931 1.297859,2.9437 0,1.3919 -0.677143,2.2853 -0.66774,0.8935 -2.022027,1.3167 0.742977,0.1693 1.326073,0.7712 0.592501,0.5925 1.194407,1.8057 l 1.965598,3.9876 h -3.855958 l -1.71167,-3.4891 q -0.517262,-1.0534 -1.053335,-1.439 -0.526667,-0.3856 -1.410716,-0.3856 z"
         style="font-style:normal;font-variant:normal;font-weight:700;font-stretch:normal;font-family:sans-serif;-inkscape-font-specification:'sans-serif Bold';fill:url(#f);fill-opacity:1;stroke:#8c1b1b;stroke-width:1;stroke-miterlimit:4;stroke-dasharray:none;stroke-opacity:1"
         id="path867" />
    </g>
  </g>
</svg>
