<svg width="32" height="32" shape-rendering="crispEdges" version="1.1" viewBox="0 0 8.467 8.467" xmlns="http://www.w3.org/2000/svg">
  <g transform="translate(0 -288.5)">
    <path d="M.651 288.92H8.08v7.429H.651z" fill="#ececec" stroke="#262626" stroke-width=".2436"/>
    <g fill="#fefe00" stroke="#000" stroke-width=".2118">
      <path transform="scale(1.06 .9431)" d="M6.368 309.104c0 .166-.039.277-.088.407-.047.13-.165.246-.245.354-.08.105-.187.187-.289.276a6.895 6.895 0 0 1-.314.248l-.319.227a2.142 2.142 0 0 0-.277.24c-.082.083-.15.173-.202.27a.747.747 0 0 0-.087.326H3.442c.014-.237.064-.438.15-.604.087-.168.194-.314.318-.438.124-.127.256-.239.397-.335.14-.097.27-.192.389-.286a1.55 1.55 0 0 0 .298-.306.62.62 0 0 0 .12-.38.628.628 0 0 0-.24-.501.849.849 0 0 0-.286-.149 1.285 1.285 0 0 0-.389-.054 1.107 1.107 0 0 0-.703.244.965.965 0 0 0-.22.282c-.057.11-.076.391-.045.531H2.009c.033-.245.078-.693.18-.908a1.81 1.81 0 0 1 .426-.562c.18-.16.398-.287.658-.38.262-.095.565-.141.91-.141.33 0 .626.038.885.115.26.078.513.162.692.303.182.138.35.285.444.481.096.193.16.388.16.626zm-2.959 4.027v-1.116h1.196v1.116z" stroke-width=".2646"/>
    </g>
  </g>
</svg>
