<svg width="32" height="32" shape-rendering="crispEdges" version="1.1" viewBox="0 0 8.467 8.467" xmlns="http://www.w3.org/2000/svg">
  <g transform="translate(0 -288.5)">
    <path d="M1.676 289.852h.538L.57 295.06H.033l1.643-5.208zM4.774 290.552l-.948.495.948.497-.153.25-.887-.518v.961h-.3v-.96l-.888.517-.153-.25.948-.497-.948-.495.153-.252.887.517v-.96h.301v.96l.887-.517.153.252zM7.938 290.552l-.948.495.947.497-.153.25-.887-.518v.961h-.3v-.96l-.888.517-.153-.25.948-.497-.948-.495.153-.252.887.517v-.96h.301v.96l.887-.517.153.252z"/>
  </g>
</svg>
