<svg width="32" height="32" version="1.1" xmlns="http://www.w3.org/2000/svg" xmlns:xlink="http://www.w3.org/1999/xlink">
  <defs>
    <linearGradient id="d" x1="16.01" x2="16.01" y1="16.01" y2="7.971" gradientUnits="userSpaceOnUse" spreadMethod="reflect">
      <stop stop-color="#0d8eff" offset="0"/>
      <stop stop-color="#67b8ff" stop-opacity=".3686" offset="1"/>
    </linearGradient>
  </defs>
  <g transform="translate(0 -1020)">
    <path d="m1.5 1022h29v29h-29z" fill="#e8e8e8" stroke="#9d9d9d" stroke-opacity=".9725"/>
    <g transform="matrix(1.116 0 0 1.119 -1.871 -123.5)" stroke-width=".8948">
      <g>
        <path transform="translate(0 1020)" d="M9.293 21.207 11.5 19l.5-2-4.406-2.203A8.5 8.5 0 0 0 7.5 16a8.5 8.5 0 0 0 1.793 5.207Z" fill="#00377a"/>
        <path transform="translate(0 1020)" d="M16 7.5a8.5 8.5 0 0 0-8.406 7.297L12 17l-.5 2-2.207 2.207A8.5 8.5 0 0 0 16 24.5a8.5 8.5 0 0 0 8.5-8.5A8.5 8.5 0 0 0 16 7.5Z" fill="url(#d)"/>
        <path d="m15.5 1032.862 1.5-2s3.5.5 5.5 1c.889.679 1.5 3 1.5 3v2l-.73 1.383s-.075.408-.235.633c-.535.984-1.535 1.984-1.535 1.984h-1l-1-3-.5-3-2.5.5z" fill="#00377a" stroke="#00377a" stroke-width=".8948px"/>
      </g>
      <circle cx="16" cy="1036" r="8.5" fill="none" stroke="#86a6cf" stroke-width=".8948"/>
    </g>
  </g>
</svg>
