<svg width="32" height="32" shape-rendering="crispEdges" version="1.1" viewBox="0 0 8.467 8.467" xmlns="http://www.w3.org/2000/svg">
  <g transform="translate(0 -288.5)">
    <g transform="matrix(.4553 0 0 .4415 -9.866 286.6)" aria-label="C">
      <path d="m30.97 22.89q-1.488 0-2.859-0.5859-1.359-0.5859-2.414-1.688-1.043-1.102-1.664-2.684-0.6211-1.594-0.6211-3.586t0.6094-3.609q0.6094-1.629 1.688-2.801 1.066-1.16 2.52-1.793t3.105-0.6328q1.23 0 2.227 0.3047t1.898 0.8555l0.4805-0.7969h0.9375l0.1055 5.93h-0.9609q-0.1875-0.8672-0.5625-1.875-0.375-1.02-0.8789-1.723-0.5625-0.7969-1.336-1.242-0.7734-0.457-1.77-0.457-1.137 0-2.121 0.5039-0.9727 0.5039-1.688 1.488-0.6797 0.9492-1.066 2.414-0.3867 1.465-0.3867 3.27 0 1.594 0.3984 2.93 0.4102 1.324 1.16 2.332 0.75 0.9961 1.77 1.559 1.031 0.5625 2.297 0.5625 0.9492 0 1.746-0.293 0.7969-0.3047 1.383-0.7969 0.5859-0.5156 1.031-1.172 0.4453-0.6562 0.7266-1.43l0.8789 0.4219q-1.008 2.473-2.672 3.539-1.664 1.055-3.961 1.055z" stroke-width=".5902"/>
    </g>
  </g>
</svg>
