<?xml version="1.0" encoding="UTF-8" standalone="no"?>
<svg
   xmlns:osb="http://www.openswatchbook.org/uri/2009/osb"
   xmlns:dc="http://purl.org/dc/elements/1.1/"
   xmlns:cc="http://creativecommons.org/ns#"
   xmlns:rdf="http://www.w3.org/1999/02/22-rdf-syntax-ns#"
   xmlns:svg="http://www.w3.org/2000/svg"
   xmlns="http://www.w3.org/2000/svg"
   xmlns:sodipodi="http://sodipodi.sourceforge.net/DTD/sodipodi-0.dtd"
   xmlns:inkscape="http://www.inkscape.org/namespaces/inkscape"
   width="32"
   height="32"
   viewBox="0 0 8.4666662 8.4666664"
   version="1.1"
   id="svg8"
   inkscape:version="1.0.2-2 (e86c870879, 2021-01-15)"
   sodipodi:docname="sourceToggletool.svg"
   inkscape:export-filename="undo_48.png"
   inkscape:export-xdpi="192"
   inkscape:export-ydpi="192"
   style="shape-rendering:crispEdges">
  <defs
     id="defs2">
    <linearGradient
       osb:paint="gradient"
       id="linearGradient862">
      <stop
         id="stop858"
         offset="0"
         style="stop-color:#f96300;stop-opacity:1" />
      <stop
         id="stop860"
         offset="1"
         style="stop-color:#fefd02;stop-opacity:1" />
    </linearGradient>
    <linearGradient
       osb:paint="gradient"
       id="linearGradient832">
      <stop
         id="stop853"
         offset="0"
         style="stop-color:#48ba43;stop-opacity:1" />
      <stop
         id="stop855"
         offset="1"
         style="stop-color:#93e790;stop-opacity:1" />
    </linearGradient>
    <linearGradient
       id="linearGradient832-3"
       osb:paint="gradient">
      <stop
         style="stop-color:#48ba43;stop-opacity:1"
         offset="0"
         id="stop828" />
      <stop
         style="stop-color:#93e790;stop-opacity:1"
         offset="1"
         id="stop830" />
    </linearGradient>
  </defs>
  <sodipodi:namedview
     id="base"
     pagecolor="#ffffff"
     bordercolor="#666666"
     borderopacity="1.0"
     inkscape:pageopacity="0.0"
     inkscape:pageshadow="2"
     inkscape:zoom="16.000001"
     inkscape:cx="9.6407479"
     inkscape:cy="15.854148"
     inkscape:document-units="px"
     inkscape:current-layer="layer1"
     showgrid="true"
     units="px"
     inkscape:pagecheckerboard="false"
     gridtolerance="10000"
     inkscape:snap-perpendicular="false"
     inkscape:snap-tangential="false"
     inkscape:window-width="1920"
     inkscape:window-height="1017"
     inkscape:window-x="-8"
     inkscape:window-y="-8"
     inkscape:window-maximized="1"
     objecttolerance="10000"
     guidetolerance="10000"
     showguides="false"
     inkscape:document-rotation="0">
    <inkscape:grid
       type="xygrid"
       id="grid3699"
       dotted="false"
       spacingx="0.13229167"
       spacingy="0.13229167"
       color="#000000"
       opacity="0.1254902"
       empcolor="#000000"
       empopacity="0.25098039" />
  </sodipodi:namedview>
  <metadata
     id="metadata5">
    <rdf:RDF>
      <cc:Work
         rdf:about="">
        <dc:format>image/svg+xml</dc:format>
        <dc:type
           rdf:resource="http://purl.org/dc/dcmitype/StillImage" />
        <dc:title />
      </cc:Work>
    </rdf:RDF>
  </metadata>
  <g
     inkscape:label="Layer 1"
     inkscape:groupmode="layer"
     id="layer1"
     transform="translate(0,-288.53334)">
    <g
       aria-label="S"
       transform="matrix(0.46549055,0,0,0.42937196,-9.405611,286.6391)"
       id="text830"
       style="font-style:normal;font-weight:normal;font-size:40px;line-height:1.25;font-family:sans-serif;letter-spacing:0px;word-spacing:0px;fill:#000000;fill-opacity:1;stroke:none;stroke-width:0.590154">
      <path
         d="m 33.996094,14.871094 q 0.527343,0.585937 0.773437,1.289062 0.257813,0.691406 0.257813,1.617188 0,2.203125 -1.628907,3.632812 -1.628906,1.429688 -4.042968,1.429688 -1.113282,0 -2.226563,-0.339844 -1.113281,-0.351563 -1.921875,-0.84375 l -0.503906,0.855469 h -0.9375 l -0.164063,-5.695313 h 0.949219 q 0.292969,1.054688 0.679688,1.910156 0.398437,0.84375 1.042968,1.582032 0.609375,0.691406 1.417969,1.101562 0.820313,0.410156 1.898438,0.410156 0.808593,0 1.40625,-0.210937 0.609375,-0.210938 0.984375,-0.597656 0.375,-0.386719 0.550781,-0.902344 0.1875,-0.527344 0.1875,-1.207031 0,-0.996094 -0.5625,-1.851563 -0.5625,-0.867187 -1.675781,-1.3125 -0.761719,-0.304687 -1.746094,-0.667968 -0.984375,-0.375 -1.699219,-0.703125 -1.40625,-0.632813 -2.191406,-1.652344 -0.773438,-1.03125 -0.773438,-2.683594 0,-0.9492187 0.386719,-1.7695312 0.386719,-0.8203126 1.101563,-1.4648438 0.679687,-0.609375 1.605468,-0.9492188 0.925782,-0.3515625 1.933594,-0.3515625 1.148438,0 2.050781,0.3515625 0.914063,0.3515625 1.664063,0.8203125 l 0.480469,-0.796875 h 0.9375 l 0.09375,5.5195313 H 33.375 Q 33.117187,10.441406 32.789062,9.5742188 32.472656,8.7070313 31.957031,8.0039063 31.453125,7.3242187 30.726562,6.9257812 30,6.515625 28.945312,6.515625 q -1.113281,0 -1.898437,0.7148437 -0.785156,0.7148438 -0.785156,1.7460938 0,1.0781255 0.503906,1.7929685 0.503906,0.703125 1.464844,1.160157 0.855468,0.410156 1.675781,0.714843 0.832031,0.292969 1.605469,0.632813 0.703125,0.304687 1.347656,0.691406 0.65625,0.386719 1.136719,0.902344 z"
         style="font-style:normal;font-variant:normal;font-weight:normal;font-stretch:normal;font-size:24px;font-family:Georgia;-inkscape-font-specification:Georgia;stroke-width:0.590154"
         id="path843" />
    </g>
  </g>
</svg>
