<svg width="32" height="32" shape-rendering="crispEdges" version="1.1" viewBox="0 0 8.467 8.467" xmlns="http://www.w3.org/2000/svg">
  <g transform="translate(0 -288.5)">
    <g transform="matrix(.4655 0 0 .4294 -9.406 286.6)" aria-label="S">
      <path d="m34 14.87q0.5273 0.5859 0.7734 1.289 0.2578 0.6914 0.2578 1.617 0 2.203-1.629 3.633-1.629 1.43-4.043 1.43-1.113 0-2.227-0.3398-1.113-0.3516-1.922-0.8438l-0.5039 0.8555h-0.9375l-0.1641-5.695h0.9492q0.293 1.055 0.6797 1.91 0.3984 0.8438 1.043 1.582 0.6094 0.6914 1.418 1.102 0.8203 0.4102 1.898 0.4102 0.8086 0 1.406-0.2109 0.6094-0.2109 0.9844-0.5977 0.375-0.3867 0.5508-0.9023 0.1875-0.5273 0.1875-1.207 0-0.9961-0.5625-1.852-0.5625-0.8672-1.676-1.312-0.7617-0.3047-1.746-0.668-0.9844-0.375-1.699-0.7031-1.406-0.6328-2.191-1.652-0.7734-1.031-0.7734-2.684 0-0.9492 0.3867-1.77 0.3867-0.8203 1.102-1.465 0.6797-0.6094 1.605-0.9492 0.9258-0.3516 1.934-0.3516 1.148 0 2.051 0.3516 0.9141 0.3516 1.664 0.8203l0.4805-0.7969h0.9375l0.09375 5.52h-0.9492q-0.2578-0.9492-0.5859-1.816-0.3164-0.8672-0.832-1.57-0.5039-0.6797-1.23-1.078-0.7266-0.4102-1.781-0.4102-1.113 0-1.898 0.7148-0.7852 0.7148-0.7852 1.746 0 1.078 0.5039 1.793 0.5039 0.7031 1.465 1.16 0.8555 0.4102 1.676 0.7148 0.832 0.293 1.605 0.6328 0.7031 0.3047 1.348 0.6914 0.6562 0.3867 1.137 0.9023z" stroke-width=".5902"/>
    </g>
  </g>
</svg>
