<svg width="32" height="32" shape-rendering="crispEdges" version="1.1" viewBox="0 0 8.467 8.467" xmlns="http://www.w3.org/2000/svg" xmlns:xlink="http://www.w3.org/1999/xlink">
  <defs>
    <linearGradient id="f" x1="5.953" x2="5.953" y1="295.5" y2="289.5" gradientUnits="userSpaceOnUse">
      <stop stop-color="#bcbcbc" offset="0"/>
      <stop stop-color="#e8e8e8" offset="1"/>
    </linearGradient>
    <linearGradient id="d" x1=".794" x2="7.673" y1="292" y2="293.8" gradientUnits="userSpaceOnUse">
      <stop stop-color="#71b1f9" offset="0"/>
      <stop stop-color="#3079cb" offset="1"/>
    </linearGradient>
    <linearGradient id="e" x1="6.085" x2="1.852" y1="292.9" y2="292.9" gradientUnits="userSpaceOnUse">
      <stop stop-color="#d8d8d8" stop-opacity=".7059" offset="0"/>
      <stop stop-color="#dedede" stop-opacity=".7059" offset="1"/>
    </linearGradient>
  </defs>
  <g transform="translate(0 -288.5)">
    <g>
      <path transform="matrix(.9975 0 0 .9166 .01 24.35)" d="m1.72 290.6h4.63v4.63h-4.63z" fill="#fff" stroke="#fff" stroke-width=".2767"/>
      <path transform="matrix(1.036 0 0 1.052 -.152 -15.25)" d="M.529 291.708h7.408v2.514H.529z" fill="url(#d)" stroke="#03356d" stroke-width=".2535"/>
      <path transform="matrix(.9975 0 0 .9166 .01 24.35)" d="m1.72 290.6h4.63v4.63h-4.63z" fill="url(#e)" stroke="#5d5d5d" stroke-opacity=".7815" stroke-width=".2767"/>
    </g>
    <path transform="matrix(.999 0 0 .9815 .138 5.489)" d="M5.556 291.047v-1.19h-.793v-.795h2.38v.794H6.35v5.424h.794v.794H4.763v-.794h.793z" fill="url(#f)" stroke="#272727" stroke-width=".2672px"/>
  </g>
</svg>
