<svg width="32" height="32" version="1.1" xmlns="http://www.w3.org/2000/svg">
  <g transform="translate(0 -1020)">
    <path d="M11.946 1042.726H6.32l-.774 3.136H.5l6.006-19h5.385l6.007 19H12.73Zm-1.036-4.109-1.766-6.83-1.755 6.83zM23 1035.862l-4.023-.07c.16-.874.389-1.56.687-2.058.305-.506.741-.942 1.308-1.311.407-.266.985-.523 1.524-.54a99 99 0 0 1 2.454-.031c1.33 0 2.55.01 3.55.01.807.171 1.145.53 1.683 1.087.378.386.931.904 1.149 1.616.218.703.185 1.411.182 2.054l-.029 5.783c-.003.643.015 1.46.017 1.762-.002.698-.002 1.198-.002 1.698H28c-.167-.352-.48-.926-.531-1.107a7.215 7.215 0 0 1-.153-.874c-.581.66-1.16 1.132-1.733 1.415-.785.377-1.697.566-2.736.566-1.381 0-2.431-.378-3.15-1.132-.713-.755-1.194-1.755-1.194-2.861 0-1.038.383-1.82.9-2.49.515-.668 1.467-1.165 2.855-1.491 1.664-.394 2.743-.669 3.238-.823a14.473 14.473 0 0 0 1.57-.63c0-.643-.113-1.094-.339-1.35-.225-.258-.62-.387-1.188-.387-.727 0-1.272.138-1.635.412-.283.214-.23.16-.404.752zm3.5 4h-2c-.5.134-.827.5-1.054.727-.247.283-.37.605-.37.965 0 .411.12.75.36 1.016.246.257.606.386 1.079.386.494 0 .952-.142 1.373-.425.429-.283.73-.626.905-1.029.182-.411.272-1.594.272-1.594z" fill="#a1c7f5" stroke="#17518d"/>
  </g>
</svg>
