<svg width="32" height="32" version="1.1" xmlns="http://www.w3.org/2000/svg" xmlns:xlink="http://www.w3.org/1999/xlink">
  <defs>
    <linearGradient id="c">
      <stop stop-color="#f8b668" offset="0"/>
      <stop stop-color="#f4972a" offset="1"/>
    </linearGradient>
    <linearGradient id="f" x1="21" x2="8" y1="1041" y2="1023" gradientUnits="userSpaceOnUse">
      <stop stop-color="#9bc3d4" offset="0"/>
      <stop stop-color="#f1f9fa" offset="1"/>
    </linearGradient>
    <linearGradient id="e" x1="26.44" x2="22.38" y1="1042" y2="1047" gradientTransform="matrix(.9862 0 0 1.056 -.073 -57.77)" gradientUnits="userSpaceOnUse">
      <stop stop-color="#b69526" offset="0"/>
      <stop stop-color="#dfc25a" offset="1"/>
    </linearGradient>
    <linearGradient id="g" x1="1" x2="6" y1="1031" y2="1036" gradientTransform="matrix(1 0 0 1 0 .02)" gradientUnits="userSpaceOnUse" xlink:href="#c"/>
    <linearGradient id="i" x1="1" x2="6" y1="1031" y2="1036" gradientTransform="translate(10)" gradientUnits="userSpaceOnUse" xlink:href="#c"/>
    <linearGradient id="h" x1="21" x2="30.5" y1="1031" y2="1036" gradientTransform="matrix(.9524 0 0 1 .976 0)" gradientUnits="userSpaceOnUse">
      <stop stop-color="#f59ffd" offset="0"/>
      <stop stop-color="#c44bce" offset="1"/>
    </linearGradient>
  </defs>
  <g transform="translate(0 -1020)">
    <path d="M24.5 1050.362c1.5 1 3.213.685 4.07-.124.93-.876 1.43-1.376 1.93-2.18.65-1.046 1-2.196 0-3.696-2-2-8.383-8.284-8.383-8.284l-5.424 6.336s5.807 5.948 7.807 7.948z" fill="url(#e)" stroke="#644e00" stroke-width="1px"/>
    <g>
      <circle cx="13.5" cy="1033" r="12" fill="url(#f)" stroke="#417e9a"/>
      <path d="m0.5 1031h6v6h-6z" fill="url(#g)" stroke="#7c4603"/>
      <path d="m20.5 1031h10v6h-10z" fill="url(#h)" stroke="#54005c"/>
      <path d="m10.5 1031h6v6h-6z" fill="url(#i)" stroke="#7c4603"/>
    </g>
  </g>
</svg>
