<svg width="32" height="32" shape-rendering="crispEdges" version="1.1" viewBox="0 0 8.467 8.467" xmlns="http://www.w3.org/2000/svg" xmlns:xlink="http://www.w3.org/1999/xlink">
  <defs>
    <linearGradient id="linearGradient4162" x1="5.953" x2="1.984" y1="293.4" y2="289.7" gradientTransform="translate(-.3883 .1322)" gradientUnits="userSpaceOnUse">
      <stop stop-color="#d52d1c" offset="0"/>
      <stop stop-color="#f39c94" offset="1"/>
    </linearGradient>
    <linearGradient id="linearGradient4161" x1="7.276" x2="2.381" y1="293.4" y2="293.4" gradientUnits="userSpaceOnUse">
      <stop stop-color="#438aeb" offset="0"/>
      <stop stop-color="#9dc4fc" offset="1"/>
    </linearGradient>
  </defs>
  <g transform="translate(0 -288.5)" fill-rule="evenodd">
    <path d="m1.465 289.5s0.7841 7e-5 1.181 7e-5c0.5292 2e-3 1.057 1.059 1.588 1.058 0.3956 6.1e-4 0.5292 1e-5 0.7938 0 0.2646 1e-5 0.3956-0.5292 0.6615-0.5292 0.2646 0 0.5292 0.1323 0.5292 0.5292v2.381c2e-7 0.5292-0.7938 1.323-1.323 1.323h-0.5292c-0.5372 0-1.058-1.058-1.588-1.058h-1.323z" fill="url(#linearGradient4162)" stroke="#9c1406" stroke-width=".2646px"/>
    <path d="m1.191 289.5h0.5292v6.35h-0.5292z" fill="#b28b0a" stroke="#b28b0a" stroke-width=".2646px"/>
    <path d="m4.895 291.3h0.6615l1.979 2.114-1.979 2.119h-0.6615v-1.058h-1.99l-0.6559-0.5292v-0.5292-0.5292l0.6559-0.5292h1.99z" fill="url(#linearGradient4161)" stroke="#1253b4" stroke-opacity=".9961" stroke-width=".2646"/>
  </g>
</svg>
