<svg width="32" height="32" version="1.1" xmlns="http://www.w3.org/2000/svg" xmlns:xlink="http://www.w3.org/1999/xlink">
  <defs>
    <linearGradient id="b" x1="9.5" x2="22.5" y1="1029" y2="1043" gradientUnits="userSpaceOnUse">
      <stop stop-color="#ece38d" offset="0"/>
      <stop stop-color="#d2c42b" offset="1"/>
    </linearGradient>
  </defs>
  <g transform="translate(0 -1020)">
    <path d="M11.948 1022.95a13.943 13.978 0 0 0-2.55 1.068l.415 4.222a10.293 10.319 0 0 0-2.157 2.188l-4.069-.4a13.943 13.978 0 0 0-1.02 2.708l3.188 2.552a10.293 10.319 0 0 0-.077 1.207 10.293 10.319 0 0 0 .127 1.573l-3.044 2.463a13.943 13.978 0 0 0 1.264 2.844l3.88-.469a10.293 10.319 0 0 0 1.775 1.74l-.462 3.844a13.943 13.978 0 0 0 2.928 1.224l2.42-3.011a10.293 10.319 0 0 0 1.405.11 10.293 10.319 0 0 0 1.215-.088l2.444 3.07a13.943 13.978 0 0 0 2.856-1.114l-.383-3.913a10.293 10.319 0 0 0 2.04-2.023l4.035.398a13.943 13.978 0 0 0 1.17-2.705l-3.19-2.554a10.293 10.319 0 0 0 .105-1.39 10.293 10.319 0 0 0-.106-1.397l3.27-2.648a13.943 13.978 0 0 0-1.084-2.69l-4.178.506a10.293 10.319 0 0 0-1.89-1.912l.512-4.276a13.943 13.978 0 0 0-2.588-1.114l-2.687 3.34a10.293 10.319 0 0 0-1.541-.127 10.293 10.319 0 0 0-1.37.102zm4.047 8.672a4.787 4.8 0 0 1 .479.024 4.787 4.8 0 0 1 .473.071 4.787 4.8 0 0 1 .464.119 4.787 4.8 0 0 1 .448.165 4.787 4.8 0 0 1 .432.208 4.787 4.8 0 0 1 .408.25 4.787 4.8 0 0 1 .38.291 4.787 4.8 0 0 1 .351.327 4.787 4.8 0 0 1 .316.361 4.787 4.8 0 0 1 .277.39 4.787 4.8 0 0 1 .24.417 4.787 4.8 0 0 1 .194.436 4.787 4.8 0 0 1 .151.456 4.787 4.8 0 0 1 .105.469 4.787 4.8 0 0 1 .058.476 4.787 4.8 0 0 1 .011.34 4.787 4.8 0 0 1-.024.48 4.787 4.8 0 0 1-.071.473 4.787 4.8 0 0 1-.118.465 4.787 4.8 0 0 1-.164.45 4.787 4.8 0 0 1-.208.431 4.787 4.8 0 0 1-.25.41 4.787 4.8 0 0 1-.29.382 4.787 4.8 0 0 1-.326.35 4.787 4.8 0 0 1-.359.317 4.787 4.8 0 0 1-.39.28 4.787 4.8 0 0 1-.416.237 4.787 4.8 0 0 1-.436.197 4.787 4.8 0 0 1-.454.152 4.787 4.8 0 0 1-.468.105 4.787 4.8 0 0 1-.475.06 4.787 4.8 0 0 1-.338.011 4.787 4.8 0 0 1-.477-.024 4.787 4.8 0 0 1-.473-.07 4.787 4.8 0 0 1-.464-.119 4.787 4.8 0 0 1-.45-.165 4.787 4.8 0 0 1-.43-.208 4.787 4.8 0 0 1-.408-.251 4.787 4.8 0 0 1-.382-.29 4.787 4.8 0 0 1-.35-.327 4.787 4.8 0 0 1-.315-.362 4.787 4.8 0 0 1-.28-.39 4.787 4.8 0 0 1-.237-.416 4.787 4.8 0 0 1-.196-.437 4.787 4.8 0 0 1-.15-.455 4.787 4.8 0 0 1-.104-.469 4.787 4.8 0 0 1-.058-.476 4.787 4.8 0 0 1-.013-.34 4.787 4.8 0 0 1 .024-.48 4.787 4.8 0 0 1 .071-.474 4.787 4.8 0 0 1 .12-.465 4.787 4.8 0 0 1 .162-.45 4.787 4.8 0 0 1 .21-.43 4.787 4.8 0 0 1 .249-.411 4.787 4.8 0 0 1 .29-.38 4.787 4.8 0 0 1 .327-.352 4.787 4.8 0 0 1 .359-.316 4.787 4.8 0 0 1 .389-.28 4.787 4.8 0 0 1 .415-.24 4.787 4.8 0 0 1 .437-.195 4.787 4.8 0 0 1 .453-.152 4.787 4.8 0 0 1 .468-.105 4.787 4.8 0 0 1 .475-.059 4.787 4.8 0 0 1 .338-.01z" fill="url(#b)" stroke="#494201" stroke-opacity=".9916"/>
  </g>
</svg>
