<svg width="32" height="32" version="1.1" xmlns="http://www.w3.org/2000/svg" xmlns:xlink="http://www.w3.org/1999/xlink">
  <defs>
    <linearGradient id="c" x1="9.5" x2="22.5" y1="1029" y2="1043" gradientTransform="matrix(.7208 0 0 .721 1.716 286.4)" gradientUnits="userSpaceOnUse">
      <stop stop-color="#ece38d" offset="0"/>
      <stop stop-color="#d2c42b" offset="1"/>
    </linearGradient>
    <linearGradient id="d" x1="22.44" x2="5.563" y1="1039" y2="1035" gradientUnits="userSpaceOnUse">
      <stop stop-color="#33a42a" offset="0"/>
      <stop stop-color="#5ed254" offset="1"/>
    </linearGradient>
  </defs>
  <g transform="translate(0 -1020)">
    <path d="M10.329 1023.94a10.05 10.078 0 0 0-1.839.77l.3 3.045a7.42 7.44 0 0 0-1.555 1.577l-2.933-.288a10.05 10.078 0 0 0-.736 1.952l2.298 1.84a7.42 7.44 0 0 0-.055.87 7.42 7.44 0 0 0 .092 1.134l-2.195 1.776a10.05 10.078 0 0 0 .912 2.05l2.797-.337a7.42 7.44 0 0 0 1.279 1.254l-.333 2.77a10.05 10.078 0 0 0 2.11.883l1.745-2.17a7.42 7.44 0 0 0 1.012.079 7.42 7.44 0 0 0 .876-.063l1.762 2.212a10.05 10.078 0 0 0 2.059-.802l-.277-2.821a7.42 7.44 0 0 0 1.47-1.459l2.91.287a10.05 10.078 0 0 0 .842-1.95l-2.298-1.841a7.42 7.44 0 0 0 .075-1.003 7.42 7.44 0 0 0-.076-1.007l2.357-1.909a10.05 10.078 0 0 0-.782-1.94l-3.011.365a7.42 7.44 0 0 0-1.363-1.378l.37-3.083a10.05 10.078 0 0 0-1.866-.803l-1.937 2.408a7.42 7.44 0 0 0-1.11-.092 7.42 7.44 0 0 0-.987.073zm2.917 6.253a3.45 3.46 0 0 1 .345.017 3.45 3.46 0 0 1 .34.05 3.45 3.46 0 0 1 .335.086 3.45 3.46 0 0 1 .324.119 3.45 3.46 0 0 1 .311.15 3.45 3.46 0 0 1 .294.181 3.45 3.46 0 0 1 .274.21 3.45 3.46 0 0 1 .253.235 3.45 3.46 0 0 1 .228.26 3.45 3.46 0 0 1 .2.282 3.45 3.46 0 0 1 .172.3 3.45 3.46 0 0 1 .14.315 3.45 3.46 0 0 1 .11.328 3.45 3.46 0 0 1 .075.338 3.45 3.46 0 0 1 .041.343 3.45 3.46 0 0 1 .009.245 3.45 3.46 0 0 1-.018.346 3.45 3.46 0 0 1-.051.342 3.45 3.46 0 0 1-.085.335 3.45 3.46 0 0 1-.119.325 3.45 3.46 0 0 1-.15.31 3.45 3.46 0 0 1-.18.295 3.45 3.46 0 0 1-.209.276 3.45 3.46 0 0 1-.234.253 3.45 3.46 0 0 1-.26.228 3.45 3.46 0 0 1-.281.202 3.45 3.46 0 0 1-.3.171 3.45 3.46 0 0 1-.313.142 3.45 3.46 0 0 1-.328.11 3.45 3.46 0 0 1-.337.076 3.45 3.46 0 0 1-.342.042 3.45 3.46 0 0 1-.244.012 3.45 3.46 0 0 1-.344-.017 3.45 3.46 0 0 1-.34-.051 3.45 3.46 0 0 1-.335-.085 3.45 3.46 0 0 1-.325-.12 3.45 3.46 0 0 1-.31-.15 3.45 3.46 0 0 1-.294-.18 3.45 3.46 0 0 1-.275-.21 3.45 3.46 0 0 1-.252-.235 3.45 3.46 0 0 1-.228-.261 3.45 3.46 0 0 1-.2-.281 3.45 3.46 0 0 1-.172-.3 3.45 3.46 0 0 1-.141-.315 3.45 3.46 0 0 1-.108-.329 3.45 3.46 0 0 1-.076-.338 3.45 3.46 0 0 1-.041-.343 3.45 3.46 0 0 1-.01-.245 3.45 3.46 0 0 1 .018-.346 3.45 3.46 0 0 1 .05-.342 3.45 3.46 0 0 1 .087-.335 3.45 3.46 0 0 1 .117-.324 3.45 3.46 0 0 1 .151-.311 3.45 3.46 0 0 1 .18-.296 3.45 3.46 0 0 1 .209-.275 3.45 3.46 0 0 1 .236-.252 3.45 3.46 0 0 1 .258-.229 3.45 3.46 0 0 1 .28-.201 3.45 3.46 0 0 1 .3-.173 3.45 3.46 0 0 1 .315-.14 3.45 3.46 0 0 1 .327-.11 3.45 3.46 0 0 1 .337-.076 3.45 3.46 0 0 1 .342-.042 3.45 3.46 0 0 1 .244-.012z" fill="url(#c)" stroke="#494201" stroke-opacity=".8902"/>
    <path transform="matrix(.7571 0 0 .5992 9.654 419.8)" d="m26.12 1037-21 12.12v-24.25l10.5 6.062z" fill="url(#d)" fill-rule="evenodd" stroke="#1c5d17" stroke-opacity=".9922" stroke-width="1.411"/>
  </g>
</svg>
