<svg width="32" height="32" shape-rendering="crispEdges" version="1.1" viewBox="0 0 8.467 8.467" xmlns="http://www.w3.org/2000/svg" xmlns:xlink="http://www.w3.org/1999/xlink">
  <defs>
    <linearGradient id="a">
      <stop stop-color="#aecfff" offset="0"/>
      <stop stop-color="#4493fd" offset="1"/>
    </linearGradient>
    <linearGradient id="b" x1="5.953" x2="1.588" y1="293" y2="289.3" gradientTransform="matrix(0 -.9853 -.9756 0 287.2 297.1)" gradientUnits="userSpaceOnUse" xlink:href="#a"/>
    <linearGradient id="c" x1=".654" x2="5.353" y1="288.4" y2="292.5" gradientTransform="matrix(0 .9853 .9756 0 -278.7 288.4)" gradientUnits="userSpaceOnUse" xlink:href="#a"/>
  </defs>
  <g transform="translate(0 -288.5)" stroke="#054192" stroke-width=".2646">
    <path d="M4.908 296.074H2.646c-.926 0-1.72-1.058-1.72-1.984v-.926H.132v-.397l1.588-1.72 1.587 1.72v.397h-.793v.396c0 .522.132.926.661.926h1.72c.258 0 .529.265.529.794 0 .397-.271.794-.53.794z" fill="url(#b)"/>
    <path d="M3.559 289.46h2.262c1.032 0 1.72 1.058 1.72 1.984v.926h.793v.397l-1.587 1.72-1.588-1.72v-.397h.794v-.397c0-.521-.132-.926-.661-.926h-1.72c-.258 0-.53-.265-.53-.794 0-.53.272-.794.53-.794z" fill="url(#c)"/>
  </g>
</svg>
