<svg width="32" height="32" shape-rendering="crispEdges" version="1.1" viewBox="0 0 8.467 8.467" xmlns="http://www.w3.org/2000/svg" xmlns:xlink="http://www.w3.org/1999/xlink">
  <defs>
    <linearGradient id="linearGradient838-3" x1="6.879" x2="1.191" y1="295.7" y2="290.8" gradientTransform="matrix(1.042 0 0 1.093 -.441 -26.87)" gradientUnits="userSpaceOnUse">
      <stop stop-color="#ecb523" offset="0"/>
      <stop stop-color="#fde194" offset="1"/>
    </linearGradient>
  </defs>
  <g transform="translate(0 -288.5)">
    <path d="m0.6615 295.9-2e-7 -5.059c-1.1e-7 -0.2252 0.2914-0.5748 0.5512-0.5782 0.2935-3e-3 1.102 0 1.24 0 0.05807 0 0.352-0.0217 0.5293 0.1821 0.2716 0.3122 0.8487 0.8749 0.8487 0.8749h2.916c0.2756 0 0.526 0.2543 0.5262 0.5268l0.00292 3.971c1.836e-4 0.2494-0.2797 0.5292-0.5292 0.5292-0.7938 0-5.263-5e-3 -5.681-7e-5 -0.2054 2e-3 -0.4048-0.2317-0.4048-0.4472z" fill="url(#linearGradient838-3)" stroke="#b78500" stroke-width=".2646px"/>
  </g>
</svg>
