<svg width="32" height="32" shape-rendering="crispEdges" version="1.1" viewBox="0 0 8.467 8.467" xmlns="http://www.w3.org/2000/svg" xmlns:xlink="http://www.w3.org/1999/xlink">
  <defs>
    <linearGradient id="linearGradient870" x1="7.938" x2="3.175" y1="294.5" y2="293.6" gradientTransform="matrix(1.059 0 0 1 -.4903 0)" gradientUnits="userSpaceOnUse">
      <stop stop-color="#e8ae11" offset="0"/>
      <stop stop-color="#f7d06b" offset="1"/>
    </linearGradient>
    <linearGradient id="linearGradient838" x1="6.879" x2="1.191" y1="295.7" y2="290.8" gradientTransform="translate(-.6615 5.36e-6)" gradientUnits="userSpaceOnUse">
      <stop stop-color="#ecb523" offset="0"/>
      <stop stop-color="#fde194" offset="1"/>
    </linearGradient>
  </defs>
  <g transform="translate(0 -288.5)">
    <path d="m0.3969 295.4c0-0.5292-2.2e-7 -4.63-2.2e-7 -4.63-8e-8 -0.2061 0.2797-0.5261 0.5292-0.5292 0.2817-3e-3 1.058 0 1.191 0 0.05575 0 0.3379-0.0199 0.5082 0.1667 0.2607 0.2858 0.8148 0.8916 0.8148 0.8916s2.381-2e-5 2.778-1e-5c0.2646 0 0.5292 0.2797 0.5292 0.5292v3.44l-0.5292 0.5292s-5.031 8e-3 -5.432 0.0124c-0.1972 2e-3 -0.3886-0.212-0.3886-0.4093z" fill="url(#linearGradient838)" stroke="#b78500" stroke-width=".2646px"/>
    <g transform="translate(9.128 -.3969)" fill="#a3189e">
      <rect x="-6.482" y="289.7" width="1.058" height="4.762"/>
      <rect x="-7.011" y="290.8" width="4.233" height="1.058"/>
      <rect x="-7.011" y="292.4" width="4.233" height="1.058"/>
      <rect x="-4.366" y="289.7" width="1.058" height="4.762"/>
    </g>
    <path d="m0.6615 296.1v-0.3969s1.378-1.382 1.984-1.984c0.1128-0.1121 0.2646-0.2646 0.5333-0.2625 0.00532 4e-5 1.198-2e-3 1.716-2e-3 0.1891 0 0.2983 0.0337 0.3969 0.1323 0.2094 0.2094 0.6615 0.6615 0.6615 0.6615h2.381s2e-7 0.2644 2e-7 0.3969c-0.4701 0.4701-1.455 1.455-1.455 1.455z" fill="url(#linearGradient870)" stroke="#b78500" stroke-width=".2646px"/>
  </g>
</svg>
