<svg width="32" height="32" version="1.1" viewBox="0 0 8.467 8.467" xmlns="http://www.w3.org/2000/svg" xmlns:xlink="http://www.w3.org/1999/xlink">
  <defs>
    <linearGradient id="linearGradient886">
      <stop stop-color="#790075" offset="0"/>
      <stop stop-color="#ae5aab" offset="1"/>
    </linearGradient>
    <linearGradient id="linearGradient890" x1="2.285" x2="5.839" y1="307.6" y2="302.1" gradientUnits="userSpaceOnUse" xlink:href="#linearGradient886"/>
    <linearGradient id="linearGradient890-6" x1="2.285" x2="5.839" y1="307.6" y2="302.1" gradientTransform="matrix(-1.042 0 0 .9596 8.467 .0007344)" gradientUnits="userSpaceOnUse" xlink:href="#linearGradient886"/>
  </defs>
  <g transform="translate(0 -288.5)">
    <g transform="matrix(1.042 0 0 .9596 -.2646 9.167e-6)" fill="url(#linearGradient890)" aria-label="{">
      <path d="m3.563 307-0.00842 0.8257h-0.199c-0.5328 0-0.8901-0.0792-1.072-0.2375-0.1797-0.1583-0.2696-0.474-0.2696-0.9468v-0.7671c0-0.3231-0.1167-0.4157-0.2322-0.5398-0.1155-0.1241-0.2638-0.2722-0.5758-0.2684l-0.1902 2e-3v-0.6893l0.1874-4.3e-4c0.306-7.1e-4 0.4609-0.0155 0.5743-0.1374 0.1155-0.1241 0.2365-0.2113 0.2365-0.5302v-0.7703c0-0.4729 0.09148-0.8871 0.2712-1.043 0.1819-0.1583 0.5397-0.129 1.017-0.1348l0.2523-3e-3v0.8272l-0.2519-3e-3c-0.3017-3e-3 -0.3542-0.0226-0.4463 0.0716-0.06347 0.0689-0.06347 0.0929-0.06347 0.3946v0.6863c0 0.3359-0.1555 0.6284-0.2539 0.7803-0.09629 0.1519-0.2724 0.2222-0.5078 0.2757 0.2375 0.0578 0.4115 0.1238 0.5078 0.2757 0.09629 0.1519 0.2685 0.4174 0.2665 0.8221l-0.0028 0.5645c-0.0015 0.3017-0.03833 0.3805 0.05368 0.4747 0.09201 0.0942 0.1968 0.0727 0.4855 0.0714z" fill="url(#linearGradient890)" stroke-width=".02646"/>
    </g>
    <path transform="translate(.2734)" d="m4.754 294.6 0.00877 0.7923h0.2074c0.5553 0 0.9277-0.076 1.117-0.2279 0.1873-0.1519 0.281-0.4548 0.281-0.9085v-0.7361c0-0.31 0.1216-0.3989 0.242-0.518 0.1204-0.1191 0.2749-0.2612 0.6001-0.2576l0.1982 2e-3v-0.6615l-0.1953-4.1e-4c-0.3189-6.8e-4 -0.4803-0.0149-0.5985-0.1319-0.1204-0.1191-0.2465-0.2028-0.2465-0.5087v-0.7392c0-0.4538-0.09533-0.8512-0.2826-1.001-0.1895-0.1519-0.5625-0.1238-1.06-0.1294l-0.2629-3e-3v0.7938l0.2625-3e-3c0.3144-3e-3 0.3692-0.0217 0.4651 0.0687 0.06614 0.0661 0.06614 0.0891 0.06614 0.3786v0.6586c0 0.3224 0.162 0.603 0.2646 0.7487 0.1003 0.1458 0.2839 0.2133 0.5292 0.2646-0.2475 0.0555-0.4288 0.1188-0.5292 0.2646-0.1003 0.1458-0.2798 0.4006-0.2777 0.7888l0.00292 0.5416c0.00156 0.2895 0.03994 0.3651-0.05594 0.4555-0.09589 0.0904-0.2051 0.0698-0.506 0.0685z" fill="url(#linearGradient890-6)"/>
  </g>
</svg>
