<svg width="32" height="32" version="1.1" viewBox="0 0 32 32" xmlns="http://www.w3.org/2000/svg" xmlns:xlink="http://www.w3.org/1999/xlink">
  <defs>
    <linearGradient id="linearGradient889" x1="14" x2="5" y1="1034" y2="1025" gradientTransform="translate(1)" gradientUnits="userSpaceOnUse">
      <stop stop-color="#b91515" offset="0"/>
      <stop stop-color="#fea6a6" offset="1"/>
    </linearGradient>
    <linearGradient id="linearGradient897" x1="24" x2="16" y1="1034" y2="1025" gradientTransform="translate(1)" gradientUnits="userSpaceOnUse">
      <stop stop-color="#0b6814" offset="0"/>
      <stop stop-color="#98f4a1" offset="1"/>
    </linearGradient>
    <linearGradient id="linearGradient905" x1="14" x2="6" y1="1044" y2="1035" gradientTransform="translate(1)" gradientUnits="userSpaceOnUse">
      <stop stop-color="#b8a508" offset="0"/>
      <stop stop-color="#fcf4b1" offset="1"/>
    </linearGradient>
    <linearGradient id="linearGradient913" x1="16" x2="24" y1="1035" y2="1043" gradientTransform="translate(1)" gradientUnits="userSpaceOnUse">
      <stop stop-color="#736ee2" offset="0"/>
      <stop stop-color="#28239b" offset="1"/>
    </linearGradient>
    <linearGradient id="linearGradient870" x1="7.938" x2="3.175" y1="294.5" y2="293.6" gradientTransform="matrix(4.002 0 0 3.78 -1.853 -70.16)" gradientUnits="userSpaceOnUse">
      <stop stop-color="#e8ae11" offset="0"/>
      <stop stop-color="#f7d06b" offset="1"/>
    </linearGradient>
    <linearGradient id="linearGradient838" x1="6.879" x2="1.191" y1="295.7" y2="290.8" gradientTransform="matrix(3.78 0 0 3.78 -2.5 -70.16)" gradientUnits="userSpaceOnUse">
      <stop stop-color="#ecb523" offset="0"/>
      <stop stop-color="#fde194" offset="1"/>
    </linearGradient>
  </defs>
  <g transform="translate(0 -1020)">
    <path d="m1.5 1046c0-2-1e-6 -17.5-1e-6 -17.5 0-0.779 1.057-1.988 2-2 1.065-0.011 4 0 4.5 0 0.2107 0 1.277-0.075 1.921 0.63 0.9854 1.08 3.079 3.37 3.079 3.37s9-1e-4 10.5 0c1 0 2 1.057 2 2v13l-2 2s-19.02 0.03-20.53 0.047c-0.7453 0.01-1.469-0.8014-1.469-1.547z" fill="url(#linearGradient838)" stroke="#b78500" stroke-width="1px"/>
    <rect x="16" y="1024" width="10" height="10" fill="url(#linearGradient897)"/>
    <rect x="6" y="1024" width="10" height="10" fill="url(#linearGradient889)"/>
    <rect x="6" y="1034" width="10" height="10" fill="url(#linearGradient905)"/>
    <rect x="16" y="1034" width="10" height="10" fill="url(#linearGradient913)"/>
    <path d="m2.5 1049v-1.5s5.207-5.222 7.5-7.5c0.4263-0.4236 1-1 2.016-0.9922 0.02011 2e-4 4.526-0.01 6.484-0.01 0.7145 0 1.127 0.1274 1.5 0.5 0.7916 0.7915 2.5 2.5 2.5 2.5h9s1e-6 0.9995 1e-6 1.5c-1.777 1.777-5.5 5.5-5.5 5.5z" fill="url(#linearGradient870)" stroke="#b78500" stroke-width="1px"/>
  </g>
</svg>
