<svg width="16" height="16" version="1.1" viewBox="0 0 4.233 4.233" xmlns="http://www.w3.org/2000/svg">
  <g transform="translate(0 -292.8)">
    <path d="M.798 294.861q-.307 0-.426.07-.118.07-.118.24 0 .135.088.215.09.079.242.079.211 0 .338-.149.128-.15.128-.398v-.057zm.506-.104v.88H1.05v-.234q-.087.14-.216.208-.13.066-.317.066-.237 0-.378-.132Q0 295.41 0 295.188q0-.26.174-.393.175-.132.52-.132h.356v-.025q0-.175-.116-.27-.114-.097-.322-.097-.132 0-.258.032-.125.032-.241.095v-.234q.14-.054.27-.08.131-.028.255-.028.335 0 .5.174.166.174.166.527zM2.706 294.861q0-.28-.115-.438-.115-.16-.316-.16t-.317.16q-.114.158-.114.438t.114.44q.116.158.317.158t.316-.158q.115-.16.115-.44zm-.862-.539q.08-.137.201-.204.123-.067.292-.067.281 0 .456.223.177.223.177.587t-.177.587q-.175.223-.456.223-.17 0-.292-.066-.121-.067-.201-.205v.232h-.255v-2.145h.255zM4.233 294.153v.237q-.091-.06-.184-.088-.092-.03-.186-.03-.211 0-.328.157-.116.155-.116.438 0 .282.116.44.117.155.328.155.094 0 .186-.029.093-.03.184-.09v.235q-.09.05-.188.074-.096.025-.206.025-.298 0-.473-.219-.176-.22-.176-.591 0-.378.177-.594.178-.216.486-.216.1 0 .196.024.095.024.184.072z"/>
    <path d="M3.175 293.825c.147 0 .353.148.265.265l-2.382 1.587-.264-.265 2.381-1.587z" fill="red" fill-rule="evenodd" style="paint-order:fill markers stroke"/>
    <path transform="matrix(.2646 0 0 .2646 0 292.8)" d="M8 2a7 5.5 0 0 0-7 5.5A7 5.5 0 0 0 8 13a7 5.5 0 0 0 7-5.5A7 5.5 0 0 0 8 2zm0 1a6 4.5 0 0 1 6 4.5A6 4.5 0 0 1 8 12a6 4.5 0 0 1-6-4.5A6 4.5 0 0 1 8 3z" fill="red" fill-rule="evenodd" style="paint-order:fill markers stroke"/>
  </g>
</svg>
