<svg width="32" height="32" version="1.1" viewBox="0 0 8.467 8.467" xmlns="http://www.w3.org/2000/svg">
  <path transform="translate(0 -288.5)" d="m0 289.9h8.467v5.556h-8.467z" fill="#f00" fill-opacity=".8957" fill-rule="evenodd" style="paint-order:fill markers stroke"/>
  <path transform="translate(0 -288.5)" d="m2.117 289.9h4.233v5.556h-4.233zm2.196 4.55-0.04-0.761a0.084 0.084 0 0 1 0.098-0.087l0.758 0.134-0.103-0.283a0.058 0.058 0 0 1 0.018-0.064l0.83-0.672-0.187-0.088a0.057 0.057 0 0 1-0.03-0.07l0.164-0.504-0.478 0.102a0.056 0.056 0 0 1-0.065-0.034l-0.092-0.218-0.373 0.4a0.057 0.057 0 0 1-0.098-0.05l0.18-0.928-0.289 0.167a0.057 0.057 0 0 1-0.08-0.024l-0.293-0.575-0.293 0.575a0.057 0.057 0 0 1-0.08 0.024l-0.288-0.167 0.18 0.928c0.01 0.057-0.059 0.092-0.098 0.05l-0.373-0.4-0.093 0.218a0.058 0.058 0 0 1-0.064 0.034l-0.478-0.102 0.164 0.505a0.057 0.057 0 0 1-0.03 0.07l-0.187 0.087 0.83 0.672c0.019 0.016 0.026 0.041 0.017 0.064l-0.102 0.283 0.758-0.134c0.052-9e-3 0.1 0.033 0.098 0.087l-0.04 0.76z" fill="#fff" stroke-width=".03307"/>
</svg>
