<svg width="16" height="16" version="1.1" viewBox="0 0 4.233 4.233" xmlns="http://www.w3.org/2000/svg">
  <defs>
    <clipPath id="a">
      <path d="M30 15h30v15zm0 0v15H0Zm0 0H0V0Zm0 0V0h30z"/>
    </clipPath>
  </defs>
  <g transform="translate(0 -292.8)">
    <path d="M1.058 293.296h2.117v2.646H1.058Zm1.098 2.218-.02-.38a.042.042 0 0 1 .05-.044l.378.067-.05-.141a.029.029 0 0 1 .008-.033l.415-.336-.094-.043a.029.029 0 0 1-.015-.035l.082-.252-.239.05a.028.028 0 0 1-.032-.016l-.046-.11-.187.2c-.02.022-.054.004-.049-.024l.09-.464-.144.083a.029.029 0 0 1-.04-.012l-.146-.287-.147.287a.029.029 0 0 1-.04.012l-.144-.083.09.464c.005.028-.03.046-.05.025l-.186-.2-.046.109a.029.029 0 0 1-.032.016l-.24-.05.083.252a.029.029 0 0 1-.015.035l-.094.043.415.336c.01.008.013.021.01.033l-.052.14.379-.066a.042.042 0 0 1 .049.043l-.02.38z" fill="#fff" stroke-width=".03307"/>
    <path d="m-0.794 293.3v2.91h5.821v-2.91z" fill="#00247d" stroke-width=".09701"/>
    <path d="m-0.794 293.3 5.821 2.91m0-2.91-5.82 2.91" stroke="#fff" stroke-width=".5821"/>
    <path transform="matrix(.09701 0 0 .09701 -.794 293.3)" d="m0 0 60 30m0-30L0 30" clip-path="url(#a)" stroke="#cf142b" stroke-width="4"/>
    <path d="m2.117 293.3v2.91m-2.91-1.455h5.82" stroke="#fff" stroke-width=".9701"/>
    <path d="m2.117 293.3v2.91m-2.91-1.455h5.82" stroke="#cf142b" stroke-width=".5821"/>
  </g>
</svg>
