<svg width="32" height="32" version="1.1" viewBox="0 0 8.467 8.467" xmlns="http://www.w3.org/2000/svg">
  <g fill-rule="evenodd">
    <path transform="translate(0 -288.5)" d="M0 289.592h8.467v5.292H0z" fill="#e70000" style="paint-order:fill markers stroke"/>
    <path transform="translate(0 -288.5)" d="M0 289.592h3.969v2.91H0z" fill="#0049b6" style="paint-order:fill markers stroke"/>
    <path transform="translate(0 -288.5)" d="m3.969 290.1h4.498v0.265h-4.498zm0 1.587h4.483v0.265h-4.483zm-3.969 1.588h8.459v0.265h-8.459zm0 0.794h8.467v0.265h-8.467zm0.265-4.234h0.265v0.265h-0.265zm1.322 7.938h3.426v0.265h-3.426zm2.382-6.879h4.498v0.265h-4.498zm-3.175-1.059h0.265v0.265h-0.265zm0.529 0h0.265v0.265h-0.265zm0.529 0h0.265v0.265h-0.265zm0.529 0h0.265v0.265h-0.265zm0.529 0h0.265v0.265h-0.265zm-2.381 0.529h0.265v0.265h-0.265zm0.529 0h0.265v0.265h-0.265zm0.53 0h0.265v0.265h-0.265zm0.529 0h0.265v0.265h-0.265zm0.529 0h0.265v0.265h-0.265zm-2.381 0.53h0.265v0.265h-0.265zm0.529 0h0.265v0.265h-0.265zm0.529 0h0.265v0.265h-0.265zm0.529 0h0.265v0.265h-0.265zm0.529 0h0.265v0.265h-0.265zm0.529 0h0.265v0.265h-0.265zm-2.381 0.529h0.265v0.265h-0.265zm0.529 0h0.265v0.265h-0.265zm0.53 0h0.265v0.265h-0.265zm0.529 0h0.265v0.265h-0.265zm0.529 0h0.265v0.265h-0.265zm-2.381 0.529h0.265v0.265h-0.265zm0.529 0h0.265v0.265h-0.265zm0.529 0h0.265v0.265h-0.265zm0.529 0h0.265v0.265h-0.265zm0.529 0h0.265v0.265h-0.265zm0.529 0h0.265v0.265h-0.265zm-2.91 0.529h8.467v0.265h-8.467zm3.44-2.646h0.265v0.265h-0.265zm-0.265 0.529h0.265v0.265h-0.265zm0.265 0.53h0.265v0.265h-0.265zm-0.265 0.529h0.265v0.265h-0.265zm0.265 0.529h0.265v0.265h-0.265z" fill="#fff" style="paint-order:fill markers stroke"/>
  </g>
</svg>
