<svg width="32" height="32" shape-rendering="crispEdges" version="1.1" viewBox="0 0 8.467 8.467" xmlns="http://www.w3.org/2000/svg" xmlns:xlink="http://www.w3.org/1999/xlink">
  <defs>
    <linearGradient id="b" x1="3.471" x2="8.762" y1="291.6" y2="291.7" gradientTransform="matrix(.6039 0 0 .6552 .028 102.5)" gradientUnits="userSpaceOnUse">
      <stop stop-color="#d52d1c" offset="0"/>
      <stop stop-color="#f39c94" offset="1"/>
    </linearGradient>
  </defs>
  <path transform="matrix(1.385 -.8823 -.8877 -1.376 260.9 409.2)" d="M1.19 292.105s.566-.028.74-.071c.175-.044.446.436.683.574.271.164.548.12.694.026.189-.12.252-.166.353-.243.166-.129.54-.272.535-.012l-.186 2.162c-.222.143-.382.475-.702.475H2.91c-.324 0-.738-.53-1.058-.53h-.661Z" fill="url(#b)" fill-rule="evenodd" shape-rendering="crispEdges" stroke="#9c1406" stroke-width=".1614"/>
  <path transform="matrix(1.385 -.8823 .8877 1.376 -259.8 -398.1)" d="M.913 292.092h.291v3.995H.913Z" fill="#b28b0a" fill-rule="evenodd" shape-rendering="crispEdges" stroke="#b28b0a" stroke-width=".1449"/>
</svg>
