<svg width="32" height="32" shape-rendering="crispEdges" version="1.1" viewBox="0 0 8.467 8.467" xmlns="http://www.w3.org/2000/svg">
  <g transform="translate(0 -288.5)">
    <path transform="matrix(.01132 0 0 .01149 10.07 287.5)" d="m-594.1 99.91c-4.054 0.076-8.56 0.716-13.59 2-67.83 17.3 5.071 91.71-54.09 129.1-59.16 37.41-95.14-60.33-139.8-6.469-44.71 53.87 58 71.24 32.12 136.3-25.87 65.04-112.5 7.08-117 76.94-4.509 69.86 88.79 23.54 106.1 91.38 17.3 67.83-86.79 71.84-49.38 131 37.41 59.16 85.67-33.14 139.5 11.56 53.86 44.71-27.98 109.1 37.06 135 65.04 25.87 49.8-77.16 119.7-72.66 69.86 4.509 41.51 104.7 109.3 87.44 67.83-17.3-5.071-91.71 54.09-129.1s95.14 60.33 139.8 6.469c44.71-53.87-58-71.21-32.12-136.2 25.87-65.04 112.5-7.112 117-76.97 4.509-69.86-88.79-23.54-106.1-91.37-17.3-67.83 86.79-71.84 49.38-131-37.41-59.16-85.67 33.18-139.5-11.53-53.86-44.71 27.98-109.2-37.06-135-65.04-25.87-49.8 77.2-119.7 72.69-64.67-4.174-45.18-90.42-95.75-89.47zm78.17 199.1c0.817-0.01 1.449-6e-3 2.269 1e-3 88.14 0.72 162.9 71.58 162.5 163.2-0.44 95.24-80.6 162.3-164.5 162.8-98.73 0.62-162.2-78.92-162.8-163.7-0.698-91.55 75.26-160.3 162.6-162.3z" fill="#007ffe" stroke="#000081" stroke-linejoin="round" stroke-width="6.547"/>
  </g>
</svg>
