<svg width="48" height="48" version="1.1" xmlns="http://www.w3.org/2000/svg">
  <title>cbp2make logo</title>
  <g transform="translate(-302.2 -607.4)">
    <g stroke="#000">
      <g>
        <path d="m333.7 637.3h4.523l4.927 3.833h6.55v8.537h-6.55l-6.884 2.556h-2.566v-14.93z" fill="#f60"/>
        <rect x="320.7" y="610.9" width="13" height="44" fill="#803300"/>
      </g>
      <g>
        <path d="m326.7 607.9h12l2.75 2h2.75l2.75-2h2.75v11h-23v-11z" fill="#0f0"/>
        <path d="m326.7 607.9v11h-24v-2.75l17.25-8.25h6.75z" fill="#f00"/>
        <path d="m326.7 618.9h23v11h-2.875l-2.875-2h-2.875l-2.875 2h-11.5v-11z" fill="#4f00a0"/>
        <path d="m302.7 618.9h24v11h-7.5l-16.5-8.25v-2.75z" fill="#ff0"/>
      </g>
      <g transform="translate(1)" fill="#f60">
        <path transform="matrix(.1023 0 0 .1046 302.9 590.3)" d="m181.4 575.1c0 11.35-9.604 20.56-21.45 20.56s-21.45-9.204-21.45-20.56c0-11.35 9.604-20.56 21.45-20.56s21.45 9.204 21.45 20.56z" stroke-width="9.665"/>
        <path transform="matrix(.1293 0 0 .1321 298 560.4)" d="m181.4 575.1c0 11.35-9.604 20.56-21.45 20.56s-21.45-9.204-21.45-20.56c0-11.35 9.604-20.56 21.45-20.56s21.45 9.204 21.45 20.56z" stroke-width="7.651"/>
        <path transform="matrix(.1562 0 0 .1597 293.1 549.6)" d="m181.4 575.1c0 11.35-9.604 20.56-21.45 20.56s-21.45-9.204-21.45-20.56c0-11.35 9.604-20.56 21.45-20.56s21.45 9.204 21.45 20.56z" stroke-width="6.332"/>
        <path transform="matrix(.1293 0 0 .1321 298 570.6)" d="m181.4 575.1c0 11.35-9.604 20.56-21.45 20.56s-21.45-9.204-21.45-20.56c0-11.35 9.604-20.56 21.45-20.56s21.45 9.204 21.45 20.56z" stroke-width="7.651"/>
        <path transform="matrix(.1831 0 0 .1872 304.3 529.4)" d="m181.4 575.1c0 11.35-9.604 20.56-21.45 20.56s-21.45-9.204-21.45-20.56c0-11.35 9.604-20.56 21.45-20.56s21.45 9.204 21.45 20.56z" stroke-width="5.401"/>
      </g>
    </g>
  </g>
</svg>
